<?xml version="1.0" encoding="UTF-8" standalone="no"?><svg xmlns="http://www.w3.org/2000/svg" xmlns:xlink="http://www.w3.org/1999/xlink" contentScriptType="application/ecmascript" contentStyleType="text/css" height="392px" preserveAspectRatio="none" style="width:411px;height:392px;" version="1.1" viewBox="0 0 411 392" width="411px" zoomAndPan="magnify"><defs><filter height="300%" id="fuhulrcbogbc8" width="300%" x="-1" y="-1"><feGaussianBlur result="blurOut" stdDeviation="2.0"/><feColorMatrix in="blurOut" result="blurOut2" type="matrix" values="0 0 0 0 0 0 0 0 0 0 0 0 0 0 0 0 0 0 .4 0"/><feOffset dx="4.0" dy="4.0" in="blurOut2" result="blurOut3"/><feBlend in="SourceGraphic" in2="blurOut3" mode="normal"/></filter></defs><g><!--MD5=[84718776d214be480e4c259efcb737fc]
class Main--><rect codeLine="1" fill="#FEFECE" filter="url(#fuhulrcbogbc8)" height="60.8047" id="Main" style="stroke: #A80036; stroke-width: 1.5;" width="134" x="104.5" y="7"/><ellipse cx="153.75" cy="23" fill="#ADD1B2" rx="11" ry="11" style="stroke: #A80036; stroke-width: 1.0;"/><path d="M156.0938,18.6719 C155.1563,18.2344 154.5625,18.0938 153.6875,18.0938 C151.0625,18.0938 149.0625,20.1719 149.0625,22.8906 L149.0625,24.0156 C149.0625,26.5938 151.1719,28.4844 154.0625,28.4844 C155.2813,28.4844 156.4375,28.1875 157.1875,27.6406 C157.7656,27.2344 158.0938,26.7813 158.0938,26.3906 C158.0938,25.9375 157.7031,25.5469 157.2344,25.5469 C157.0156,25.5469 156.8125,25.625 156.625,25.8125 C156.1719,26.2969 156.1719,26.2969 155.9844,26.3906 C155.5625,26.6563 154.875,26.7813 154.1094,26.7813 C152.0625,26.7813 150.7656,25.6875 150.7656,23.9844 L150.7656,22.8906 C150.7656,21.1094 152.0156,19.7969 153.75,19.7969 C154.3281,19.7969 154.9375,19.9531 155.4063,20.2031 C155.8906,20.4844 156.0625,20.7031 156.1563,21.1094 C156.2188,21.5156 156.25,21.6406 156.3906,21.7656 C156.5313,21.9063 156.7656,22.0156 156.9844,22.0156 C157.25,22.0156 157.5156,21.875 157.6875,21.6563 C157.7969,21.5 157.8281,21.3125 157.8281,20.8906 L157.8281,19.4688 C157.8281,19.0313 157.8125,18.9063 157.7188,18.75 C157.5625,18.4844 157.2813,18.3438 156.9844,18.3438 C156.6875,18.3438 156.4844,18.4375 156.2656,18.75 L156.0938,18.6719 Z "/><text fill="#000000" font-family="sans-serif" font-size="12" lengthAdjust="spacingAndGlyphs" textLength="27" x="174.25" y="27.1543">Main</text><line style="stroke: #A80036; stroke-width: 1.5;" x1="105.5" x2="237.5" y1="39" y2="39"/><line style="stroke: #A80036; stroke-width: 1.5;" x1="105.5" x2="237.5" y1="47" y2="47"/><ellipse cx="115.5" cy="58" fill="#84BE84" rx="3" ry="3" style="stroke: #038048; stroke-width: 1.0;"/><text fill="#000000" font-family="sans-serif" font-size="11" lengthAdjust="spacingAndGlyphs" text-decoration="underline" textLength="108" x="124.5" y="61.2104">main(args: String[])</text><!--MD5=[dda496a2ed7283fc728b8870bbd50c15]
class Read--><rect codeLine="5" fill="#FEFECE" filter="url(#fuhulrcbogbc8)" height="60.8047" id="Read" style="stroke: #A80036; stroke-width: 1.5;" width="89" x="28" y="153.5"/><ellipse cx="55.15" cy="169.5" fill="#ADD1B2" rx="11" ry="11" style="stroke: #A80036; stroke-width: 1.0;"/><path d="M57.4938,165.1719 C56.5563,164.7344 55.9625,164.5938 55.0875,164.5938 C52.4625,164.5938 50.4625,166.6719 50.4625,169.3906 L50.4625,170.5156 C50.4625,173.0938 52.5719,174.9844 55.4625,174.9844 C56.6813,174.9844 57.8375,174.6875 58.5875,174.1406 C59.1656,173.7344 59.4938,173.2813 59.4938,172.8906 C59.4938,172.4375 59.1031,172.0469 58.6344,172.0469 C58.4156,172.0469 58.2125,172.125 58.025,172.3125 C57.5719,172.7969 57.5719,172.7969 57.3844,172.8906 C56.9625,173.1563 56.275,173.2813 55.5094,173.2813 C53.4625,173.2813 52.1656,172.1875 52.1656,170.4844 L52.1656,169.3906 C52.1656,167.6094 53.4156,166.2969 55.15,166.2969 C55.7281,166.2969 56.3375,166.4531 56.8063,166.7031 C57.2906,166.9844 57.4625,167.2031 57.5563,167.6094 C57.6188,168.0156 57.65,168.1406 57.7906,168.2656 C57.9313,168.4063 58.1656,168.5156 58.3844,168.5156 C58.65,168.5156 58.9156,168.375 59.0875,168.1563 C59.1969,168 59.2281,167.8125 59.2281,167.3906 L59.2281,165.9688 C59.2281,165.5313 59.2125,165.4063 59.1188,165.25 C58.9625,164.9844 58.6813,164.8438 58.3844,164.8438 C58.0875,164.8438 57.8844,164.9375 57.6656,165.25 L57.4938,165.1719 Z "/><text fill="#000000" font-family="sans-serif" font-size="12" lengthAdjust="spacingAndGlyphs" textLength="30" x="71.85" y="173.6543">Read</text><line style="stroke: #A80036; stroke-width: 1.5;" x1="29" x2="116" y1="185.5" y2="185.5"/><line style="stroke: #A80036; stroke-width: 1.5;" x1="29" x2="116" y1="193.5" y2="193.5"/><ellipse cx="39" cy="204.5" fill="#84BE84" rx="3" ry="3" style="stroke: #038048; stroke-width: 1.0;"/><text fill="#000000" font-family="sans-serif" font-size="11" lengthAdjust="spacingAndGlyphs" text-decoration="underline" textLength="63" x="48" y="207.7104">lireFichier()</text><!--MD5=[ced94f7cdcbb8a57022a623199f6da4c]
class Validation--><rect codeLine="9" fill="#FEFECE" filter="url(#fuhulrcbogbc8)" height="60.8047" id="Validation" style="stroke: #A80036; stroke-width: 1.5;" width="121" x="7" y="306.5"/><ellipse cx="35.95" cy="322.5" fill="#ADD1B2" rx="11" ry="11" style="stroke: #A80036; stroke-width: 1.0;"/><path d="M38.2938,318.1719 C37.3563,317.7344 36.7625,317.5938 35.8875,317.5938 C33.2625,317.5938 31.2625,319.6719 31.2625,322.3906 L31.2625,323.5156 C31.2625,326.0938 33.3719,327.9844 36.2625,327.9844 C37.4813,327.9844 38.6375,327.6875 39.3875,327.1406 C39.9656,326.7344 40.2938,326.2813 40.2938,325.8906 C40.2938,325.4375 39.9031,325.0469 39.4344,325.0469 C39.2156,325.0469 39.0125,325.125 38.825,325.3125 C38.3719,325.7969 38.3719,325.7969 38.1844,325.8906 C37.7625,326.1563 37.075,326.2813 36.3094,326.2813 C34.2625,326.2813 32.9656,325.1875 32.9656,323.4844 L32.9656,322.3906 C32.9656,320.6094 34.2156,319.2969 35.95,319.2969 C36.5281,319.2969 37.1375,319.4531 37.6063,319.7031 C38.0906,319.9844 38.2625,320.2031 38.3563,320.6094 C38.4188,321.0156 38.45,321.1406 38.5906,321.2656 C38.7313,321.4063 38.9656,321.5156 39.1844,321.5156 C39.45,321.5156 39.7156,321.375 39.8875,321.1563 C39.9969,321 40.0281,320.8125 40.0281,320.3906 L40.0281,318.9688 C40.0281,318.5313 40.0125,318.4063 39.9188,318.25 C39.7625,317.9844 39.4813,317.8438 39.1844,317.8438 C38.8875,317.8438 38.6844,317.9375 38.4656,318.25 L38.2938,318.1719 Z "/><text fill="#000000" font-family="sans-serif" font-size="12" lengthAdjust="spacingAndGlyphs" textLength="58" x="53.05" y="326.6543">Validation</text><line style="stroke: #A80036; stroke-width: 1.5;" x1="8" x2="127" y1="338.5" y2="338.5"/><line style="stroke: #A80036; stroke-width: 1.5;" x1="8" x2="127" y1="346.5" y2="346.5"/><ellipse cx="18" cy="357.5" fill="#84BE84" rx="3" ry="3" style="stroke: #038048; stroke-width: 1.0;"/><text fill="#000000" font-family="sans-serif" font-size="11" lengthAdjust="spacingAndGlyphs" text-decoration="underline" textLength="95" x="27" y="360.7104">validerContenu()</text><!--MD5=[712b49a80551510261ad10524cc74d81]
class Plateau--><rect codeLine="13" fill="#FEFECE" filter="url(#fuhulrcbogbc8)" height="112.0234" id="Plateau" style="stroke: #A80036; stroke-width: 1.5;" width="216" x="163.5" y="128"/><ellipse cx="246.25" cy="144" fill="#ADD1B2" rx="11" ry="11" style="stroke: #A80036; stroke-width: 1.0;"/><path d="M248.5938,139.6719 C247.6563,139.2344 247.0625,139.0938 246.1875,139.0938 C243.5625,139.0938 241.5625,141.1719 241.5625,143.8906 L241.5625,145.0156 C241.5625,147.5938 243.6719,149.4844 246.5625,149.4844 C247.7813,149.4844 248.9375,149.1875 249.6875,148.6406 C250.2656,148.2344 250.5938,147.7813 250.5938,147.3906 C250.5938,146.9375 250.2031,146.5469 249.7344,146.5469 C249.5156,146.5469 249.3125,146.625 249.125,146.8125 C248.6719,147.2969 248.6719,147.2969 248.4844,147.3906 C248.0625,147.6563 247.375,147.7813 246.6094,147.7813 C244.5625,147.7813 243.2656,146.6875 243.2656,144.9844 L243.2656,143.8906 C243.2656,142.1094 244.5156,140.7969 246.25,140.7969 C246.8281,140.7969 247.4375,140.9531 247.9063,141.2031 C248.3906,141.4844 248.5625,141.7031 248.6563,142.1094 C248.7188,142.5156 248.75,142.6406 248.8906,142.7656 C249.0313,142.9063 249.2656,143.0156 249.4844,143.0156 C249.75,143.0156 250.0156,142.875 250.1875,142.6563 C250.2969,142.5 250.3281,142.3125 250.3281,141.8906 L250.3281,140.4688 C250.3281,140.0313 250.3125,139.9063 250.2188,139.75 C250.0625,139.4844 249.7813,139.3438 249.4844,139.3438 C249.1875,139.3438 248.9844,139.4375 248.7656,139.75 L248.5938,139.6719 Z "/><text fill="#000000" font-family="sans-serif" font-size="12" lengthAdjust="spacingAndGlyphs" textLength="42" x="266.75" y="148.1543">Plateau</text><line style="stroke: #A80036; stroke-width: 1.5;" x1="164.5" x2="378.5" y1="160" y2="160"/><rect fill="none" height="6" style="stroke: #C82930; stroke-width: 1.0;" width="6" x="171.5" y="168"/><text fill="#000000" font-family="sans-serif" font-size="11" lengthAdjust="spacingAndGlyphs" textLength="59" x="183.5" y="174.2104">dimension</text><rect fill="none" height="6" style="stroke: #C82930; stroke-width: 1.0;" width="6" x="171.5" y="180.8047"/><text fill="#000000" font-family="sans-serif" font-size="11" lengthAdjust="spacingAndGlyphs" textLength="88" x="183.5" y="187.0151">grille [][]Cellule</text><line style="stroke: #A80036; stroke-width: 1.5;" x1="164.5" x2="378.5" y1="193.6094" y2="193.6094"/><ellipse cx="174.5" cy="204.6094" fill="#84BE84" rx="3" ry="3" style="stroke: #038048; stroke-width: 1.0;"/><text fill="#000000" font-family="sans-serif" font-size="11" lengthAdjust="spacingAndGlyphs" textLength="120" x="183.5" y="207.8198">remplir(ligne : String)</text><rect fill="#F24D5C" height="6" style="stroke: #C82930; stroke-width: 1.0;" width="6" x="171.5" y="214.4141"/><text fill="#000000" font-family="sans-serif" font-size="11" lengthAdjust="spacingAndGlyphs" textLength="190" x="183.5" y="220.6245">simulationVie(nbSimulations : int)</text><rect fill="#F24D5C" height="6" style="stroke: #C82930; stroke-width: 1.0;" width="6" x="171.5" y="227.2188"/><text fill="#000000" font-family="sans-serif" font-size="11" lengthAdjust="spacingAndGlyphs" textLength="51" x="183.5" y="233.4292">afficher()</text><!--MD5=[5a914b73609f412641820e1f6a352f08]
class Cellule--><rect codeLine="21" fill="#FEFECE" filter="url(#fuhulrcbogbc8)" height="73.6094" id="Cellule" style="stroke: #A80036; stroke-width: 1.5;" width="229" x="163" y="300"/><ellipse cx="253.25" cy="316" fill="#ADD1B2" rx="11" ry="11" style="stroke: #A80036; stroke-width: 1.0;"/><path d="M255.5938,311.6719 C254.6563,311.2344 254.0625,311.0938 253.1875,311.0938 C250.5625,311.0938 248.5625,313.1719 248.5625,315.8906 L248.5625,317.0156 C248.5625,319.5938 250.6719,321.4844 253.5625,321.4844 C254.7813,321.4844 255.9375,321.1875 256.6875,320.6406 C257.2656,320.2344 257.5938,319.7813 257.5938,319.3906 C257.5938,318.9375 257.2031,318.5469 256.7344,318.5469 C256.5156,318.5469 256.3125,318.625 256.125,318.8125 C255.6719,319.2969 255.6719,319.2969 255.4844,319.3906 C255.0625,319.6563 254.375,319.7813 253.6094,319.7813 C251.5625,319.7813 250.2656,318.6875 250.2656,316.9844 L250.2656,315.8906 C250.2656,314.1094 251.5156,312.7969 253.25,312.7969 C253.8281,312.7969 254.4375,312.9531 254.9063,313.2031 C255.3906,313.4844 255.5625,313.7031 255.6563,314.1094 C255.7188,314.5156 255.75,314.6406 255.8906,314.7656 C256.0313,314.9063 256.2656,315.0156 256.4844,315.0156 C256.75,315.0156 257.0156,314.875 257.1875,314.6563 C257.2969,314.5 257.3281,314.3125 257.3281,313.8906 L257.3281,312.4688 C257.3281,312.0313 257.3125,311.9063 257.2188,311.75 C257.0625,311.4844 256.7813,311.3438 256.4844,311.3438 C256.1875,311.3438 255.9844,311.4375 255.7656,311.75 L255.5938,311.6719 Z "/><text fill="#000000" font-family="sans-serif" font-size="12" lengthAdjust="spacingAndGlyphs" textLength="40" x="273.75" y="320.1543">Cellule</text><line style="stroke: #A80036; stroke-width: 1.5;" x1="164" x2="391" y1="332" y2="332"/><rect fill="none" height="6" style="stroke: #C82930; stroke-width: 1.0;" width="6" x="171" y="340"/><text fill="#000000" font-family="sans-serif" font-size="11" lengthAdjust="spacingAndGlyphs" textLength="100" x="183" y="346.2104">vivante : boolean</text><line style="stroke: #A80036; stroke-width: 1.5;" x1="164" x2="391" y1="352.8047" y2="352.8047"/><ellipse cx="174" cy="363.8047" fill="#84BE84" rx="3" ry="3" style="stroke: #038048; stroke-width: 1.0;"/><text fill="#000000" font-family="sans-serif" font-size="11" lengthAdjust="spacingAndGlyphs" textLength="203" x="183" y="367.0151">siVivante(etatCell : String): boolean</text><!--MD5=[62d8bee24a919cd9dbb2cc9f7bed8c50]
link Main to Read--><path codeLine="26" d="M151.227,68.09 C135.077,91.663 112.461,124.673 95.6101,149.269 " fill="none" id="Main-to-Read" style="stroke: #A80036; stroke-width: 1.0;"/><polygon fill="#A80036" points="92.7459,153.449,101.1323,148.2849,95.5717,149.3241,94.5325,143.7635,92.7459,153.449" style="stroke: #A80036; stroke-width: 1.0;"/><text fill="#000000" font-family="sans-serif" font-size="13" lengthAdjust="spacingAndGlyphs" textLength="8" x="88.2997" y="142.2281">1</text><!--MD5=[309497e6ea12d1748dbef7e069997521]
link Read to Validation--><path codeLine="27" d="M71.5122,214.833 C70.6877,239.731 69.5118,275.2434 68.6461,301.3883 " fill="none" id="Read-to-Validation" style="stroke: #A80036; stroke-width: 1.0;"/><polygon fill="#A80036" points="68.4773,306.4865,72.7731,297.6239,68.6429,301.4892,64.7775,297.359,68.4773,306.4865" style="stroke: #A80036; stroke-width: 1.0;"/><text fill="#000000" font-family="sans-serif" font-size="13" lengthAdjust="spacingAndGlyphs" textLength="8" x="59.8161" y="295.2738">1</text><!--MD5=[0b89f4194c612c7501168e71dfe0a771]
link Main to Plateau--><path codeLine="28" d="M191.978,68.09 C203.027,84.057 217.074,104.355 230.278,123.434 " fill="none" id="Main-to-Plateau" style="stroke: #A80036; stroke-width: 1.0;"/><polygon fill="#A80036" points="233.257,127.739,231.4239,118.0622,230.4114,123.6277,224.8459,122.6152,233.257,127.739" style="stroke: #A80036; stroke-width: 1.0;"/><text fill="#000000" font-family="sans-serif" font-size="13" lengthAdjust="spacingAndGlyphs" textLength="8" x="220.1086" y="117.0417">1</text><!--MD5=[abe8121f53e4ce7c3bef6cf55d371ea7]
link Plateau to Cellule--><path codeLine="29" d="M273.7,240.369 C274.415,258.371 275.196,278.0206 275.863,294.7996 " fill="none" id="Plateau-to-Cellule" style="stroke: #A80036; stroke-width: 1.0;"/><polygon fill="#A80036" points="276.066,299.9097,279.7051,290.7578,275.8673,294.9137,271.7115,291.0758,276.066,299.9097" style="stroke: #A80036; stroke-width: 1.0;"/><text fill="#000000" font-family="sans-serif" font-size="13" lengthAdjust="spacingAndGlyphs" textLength="7" x="268.1563" y="288.8035">*</text><!--MD5=[d68c85500a8594607c8098be198c3c06]
@startuml
class Main {
	+ {static} main(args: String[])
}

class Read {
   + {static} lireFichier()
}

class Validation {
   + {static} validerContenu()
}

class Plateau{
  - dimension
  - grille [][]Cellule
  + remplir(ligne : String)
  - simulationVie(nbSimulations : int)
  - afficher()
}

class Cellule{
  - vivante : boolean
  + siVivante(etatCell : String): boolean
}

Main - -> "1" Read
Read - -> "1" Validation
Main - -> "1" Plateau
Plateau - -> "*" Cellule
@enduml

PlantUML version 1.2020.18beta4(Unknown compile time)
(GPL source distribution)
Java Runtime: Java(TM) SE Runtime Environment
JVM: Java HotSpot(TM) 64-Bit Server VM
Default Encoding: UTF-8
Language: en
Country: US
--></g></svg>