<?xml version="1.0" encoding="UTF-8" standalone="no"?><svg xmlns="http://www.w3.org/2000/svg" xmlns:xlink="http://www.w3.org/1999/xlink" contentScriptType="application/ecmascript" contentStyleType="text/css" height="86px" preserveAspectRatio="none" style="width:160px;height:86px;" version="1.1" viewBox="0 0 160 86" width="160px" zoomAndPan="magnify"><defs><filter height="300%" id="f486l5kiqemaq" width="300%" x="-1" y="-1"><feGaussianBlur result="blurOut" stdDeviation="2.0"/><feColorMatrix in="blurOut" result="blurOut2" type="matrix" values="0 0 0 0 0 0 0 0 0 0 0 0 0 0 0 0 0 0 .4 0"/><feOffset dx="4.0" dy="4.0" in="blurOut2" result="blurOut3"/><feBlend in="SourceGraphic" in2="blurOut3" mode="normal"/></filter></defs><g><!--MD5=[d2c5c78dfbbc081a60a089d77a342365]
class Conway--><rect codeLine="1" fill="#FEFECE" filter="url(#f486l5kiqemaq)" height="60.8047" id="Conway" style="stroke: #A80036; stroke-width: 1.5;" width="134" x="7" y="7"/><ellipse cx="46.75" cy="23" fill="#ADD1B2" rx="11" ry="11" style="stroke: #A80036; stroke-width: 1.0;"/><path d="M49.0938,18.6719 C48.1563,18.2344 47.5625,18.0938 46.6875,18.0938 C44.0625,18.0938 42.0625,20.1719 42.0625,22.8906 L42.0625,24.0156 C42.0625,26.5938 44.1719,28.4844 47.0625,28.4844 C48.2813,28.4844 49.4375,28.1875 50.1875,27.6406 C50.7656,27.2344 51.0938,26.7813 51.0938,26.3906 C51.0938,25.9375 50.7031,25.5469 50.2344,25.5469 C50.0156,25.5469 49.8125,25.625 49.625,25.8125 C49.1719,26.2969 49.1719,26.2969 48.9844,26.3906 C48.5625,26.6563 47.875,26.7813 47.1094,26.7813 C45.0625,26.7813 43.7656,25.6875 43.7656,23.9844 L43.7656,22.8906 C43.7656,21.1094 45.0156,19.7969 46.75,19.7969 C47.3281,19.7969 47.9375,19.9531 48.4063,20.2031 C48.8906,20.4844 49.0625,20.7031 49.1563,21.1094 C49.2188,21.5156 49.25,21.6406 49.3906,21.7656 C49.5313,21.9063 49.7656,22.0156 49.9844,22.0156 C50.25,22.0156 50.5156,21.875 50.6875,21.6563 C50.7969,21.5 50.8281,21.3125 50.8281,20.8906 L50.8281,19.4688 C50.8281,19.0313 50.8125,18.9063 50.7188,18.75 C50.5625,18.4844 50.2813,18.3438 49.9844,18.3438 C49.6875,18.3438 49.4844,18.4375 49.2656,18.75 L49.0938,18.6719 Z "/><text fill="#000000" font-family="sans-serif" font-size="12" lengthAdjust="spacingAndGlyphs" textLength="47" x="66.25" y="27.1543">Conway</text><line style="stroke: #A80036; stroke-width: 1.5;" x1="8" x2="140" y1="39" y2="39"/><line style="stroke: #A80036; stroke-width: 1.5;" x1="8" x2="140" y1="47" y2="47"/><ellipse cx="18" cy="58" fill="#84BE84" rx="3" ry="3" style="stroke: #038048; stroke-width: 1.0;"/><text fill="#000000" font-family="sans-serif" font-size="11" lengthAdjust="spacingAndGlyphs" text-decoration="underline" textLength="108" x="27" y="61.2104">main(args: String[])</text><!--MD5=[98fe4eee7816219a0d44e1718b5e476f]
@startuml
class Conway {
	+ {static} main(args: String[])
}
@enduml

PlantUML version 1.2020.17beta5(Unknown compile time)
(GPL source distribution)
Java Runtime: Java(TM) SE Runtime Environment
JVM: Java HotSpot(TM) 64-Bit Server VM
Default Encoding: UTF-8
Language: en
Country: US
--></g></svg>