<?xml version="1.0" encoding="UTF-8" standalone="no"?><svg xmlns="http://www.w3.org/2000/svg" xmlns:xlink="http://www.w3.org/1999/xlink" contentScriptType="application/ecmascript" contentStyleType="text/css" height="795px" preserveAspectRatio="none" style="width:618px;height:795px;" version="1.1" viewBox="0 0 618 795" width="618px" zoomAndPan="magnify"><defs><filter height="300%" id="fgyccw7w6lz3v" width="300%" x="-1" y="-1"><feGaussianBlur result="blurOut" stdDeviation="2.0"/><feColorMatrix in="blurOut" result="blurOut2" type="matrix" values="0 0 0 0 0 0 0 0 0 0 0 0 0 0 0 0 0 0 .4 0"/><feOffset dx="4.0" dy="4.0" in="blurOut2" result="blurOut3"/><feBlend in="SourceGraphic" in2="blurOut3" mode="normal"/></filter></defs><g><!--MD5=[84718776d214be480e4c259efcb737fc]
class Main--><rect codeLine="1" fill="#FEFECE" filter="url(#fgyccw7w6lz3v)" height="60.8047" id="Main" style="stroke: #A80036; stroke-width: 1.5;" width="134" x="327" y="7"/><ellipse cx="376.25" cy="23" fill="#ADD1B2" rx="11" ry="11" style="stroke: #A80036; stroke-width: 1.0;"/><path d="M378.5938,18.6719 C377.6563,18.2344 377.0625,18.0938 376.1875,18.0938 C373.5625,18.0938 371.5625,20.1719 371.5625,22.8906 L371.5625,24.0156 C371.5625,26.5938 373.6719,28.4844 376.5625,28.4844 C377.7813,28.4844 378.9375,28.1875 379.6875,27.6406 C380.2656,27.2344 380.5938,26.7813 380.5938,26.3906 C380.5938,25.9375 380.2031,25.5469 379.7344,25.5469 C379.5156,25.5469 379.3125,25.625 379.125,25.8125 C378.6719,26.2969 378.6719,26.2969 378.4844,26.3906 C378.0625,26.6563 377.375,26.7813 376.6094,26.7813 C374.5625,26.7813 373.2656,25.6875 373.2656,23.9844 L373.2656,22.8906 C373.2656,21.1094 374.5156,19.7969 376.25,19.7969 C376.8281,19.7969 377.4375,19.9531 377.9063,20.2031 C378.3906,20.4844 378.5625,20.7031 378.6563,21.1094 C378.7188,21.5156 378.75,21.6406 378.8906,21.7656 C379.0313,21.9063 379.2656,22.0156 379.4844,22.0156 C379.75,22.0156 380.0156,21.875 380.1875,21.6563 C380.2969,21.5 380.3281,21.3125 380.3281,20.8906 L380.3281,19.4688 C380.3281,19.0313 380.3125,18.9063 380.2188,18.75 C380.0625,18.4844 379.7813,18.3438 379.4844,18.3438 C379.1875,18.3438 378.9844,18.4375 378.7656,18.75 L378.5938,18.6719 Z "/><text fill="#000000" font-family="sans-serif" font-size="12" lengthAdjust="spacingAndGlyphs" textLength="27" x="396.75" y="27.1543">Main</text><line style="stroke: #A80036; stroke-width: 1.5;" x1="328" x2="460" y1="39" y2="39"/><line style="stroke: #A80036; stroke-width: 1.5;" x1="328" x2="460" y1="47" y2="47"/><ellipse cx="338" cy="58" fill="#84BE84" rx="3" ry="3" style="stroke: #038048; stroke-width: 1.0;"/><text fill="#000000" font-family="sans-serif" font-size="11" lengthAdjust="spacingAndGlyphs" text-decoration="underline" textLength="108" x="347" y="61.2104">main(args: String[])</text><!--MD5=[dda496a2ed7283fc728b8870bbd50c15]
class Read--><rect codeLine="5" fill="#FEFECE" filter="url(#fgyccw7w6lz3v)" height="73.6094" id="Read" style="stroke: #A80036; stroke-width: 1.5;" width="170" x="171" y="134"/><ellipse cx="236.75" cy="150" fill="#ADD1B2" rx="11" ry="11" style="stroke: #A80036; stroke-width: 1.0;"/><path d="M239.0938,145.6719 C238.1563,145.2344 237.5625,145.0938 236.6875,145.0938 C234.0625,145.0938 232.0625,147.1719 232.0625,149.8906 L232.0625,151.0156 C232.0625,153.5938 234.1719,155.4844 237.0625,155.4844 C238.2813,155.4844 239.4375,155.1875 240.1875,154.6406 C240.7656,154.2344 241.0938,153.7813 241.0938,153.3906 C241.0938,152.9375 240.7031,152.5469 240.2344,152.5469 C240.0156,152.5469 239.8125,152.625 239.625,152.8125 C239.1719,153.2969 239.1719,153.2969 238.9844,153.3906 C238.5625,153.6563 237.875,153.7813 237.1094,153.7813 C235.0625,153.7813 233.7656,152.6875 233.7656,150.9844 L233.7656,149.8906 C233.7656,148.1094 235.0156,146.7969 236.75,146.7969 C237.3281,146.7969 237.9375,146.9531 238.4063,147.2031 C238.8906,147.4844 239.0625,147.7031 239.1563,148.1094 C239.2188,148.5156 239.25,148.6406 239.3906,148.7656 C239.5313,148.9063 239.7656,149.0156 239.9844,149.0156 C240.25,149.0156 240.5156,148.875 240.6875,148.6563 C240.7969,148.5 240.8281,148.3125 240.8281,147.8906 L240.8281,146.4688 C240.8281,146.0313 240.8125,145.9063 240.7188,145.75 C240.5625,145.4844 240.2813,145.3438 239.9844,145.3438 C239.6875,145.3438 239.4844,145.4375 239.2656,145.75 L239.0938,145.6719 Z "/><text fill="#000000" font-family="sans-serif" font-size="12" lengthAdjust="spacingAndGlyphs" textLength="30" x="257.25" y="154.1543">Read</text><line style="stroke: #A80036; stroke-width: 1.5;" x1="172" x2="340" y1="166" y2="166"/><rect fill="none" height="6" style="stroke: #C82930; stroke-width: 1.0;" width="6" x="179" y="174"/><text fill="#000000" font-family="sans-serif" font-size="11" lengthAdjust="spacingAndGlyphs" textLength="75" x="191" y="180.2104">fichier: String</text><line style="stroke: #A80036; stroke-width: 1.5;" x1="172" x2="340" y1="186.8047" y2="186.8047"/><ellipse cx="182" cy="197.8047" fill="#84BE84" rx="3" ry="3" style="stroke: #038048; stroke-width: 1.0;"/><text fill="#000000" font-family="sans-serif" font-size="11" lengthAdjust="spacingAndGlyphs" textLength="144" x="191" y="201.0151">entrerDonnees(): Plateau</text><!--MD5=[ced94f7cdcbb8a57022a623199f6da4c]
class Validation--><rect codeLine="10" fill="#FEFECE" filter="url(#fgyccw7w6lz3v)" height="86.4141" id="Validation" style="stroke: #A80036; stroke-width: 1.5;" width="256" x="7" y="300"/><ellipse cx="101.75" cy="316" fill="#ADD1B2" rx="11" ry="11" style="stroke: #A80036; stroke-width: 1.0;"/><path d="M104.0938,311.6719 C103.1563,311.2344 102.5625,311.0938 101.6875,311.0938 C99.0625,311.0938 97.0625,313.1719 97.0625,315.8906 L97.0625,317.0156 C97.0625,319.5938 99.1719,321.4844 102.0625,321.4844 C103.2813,321.4844 104.4375,321.1875 105.1875,320.6406 C105.7656,320.2344 106.0938,319.7813 106.0938,319.3906 C106.0938,318.9375 105.7031,318.5469 105.2344,318.5469 C105.0156,318.5469 104.8125,318.625 104.625,318.8125 C104.1719,319.2969 104.1719,319.2969 103.9844,319.3906 C103.5625,319.6563 102.875,319.7813 102.1094,319.7813 C100.0625,319.7813 98.7656,318.6875 98.7656,316.9844 L98.7656,315.8906 C98.7656,314.1094 100.0156,312.7969 101.75,312.7969 C102.3281,312.7969 102.9375,312.9531 103.4063,313.2031 C103.8906,313.4844 104.0625,313.7031 104.1563,314.1094 C104.2188,314.5156 104.25,314.6406 104.3906,314.7656 C104.5313,314.9063 104.7656,315.0156 104.9844,315.0156 C105.25,315.0156 105.5156,314.875 105.6875,314.6563 C105.7969,314.5 105.8281,314.3125 105.8281,313.8906 L105.8281,312.4688 C105.8281,312.0313 105.8125,311.9063 105.7188,311.75 C105.5625,311.4844 105.2813,311.3438 104.9844,311.3438 C104.6875,311.3438 104.4844,311.4375 104.2656,311.75 L104.0938,311.6719 Z "/><text fill="#000000" font-family="sans-serif" font-size="12" lengthAdjust="spacingAndGlyphs" textLength="58" x="122.25" y="320.1543">Validation</text><line style="stroke: #A80036; stroke-width: 1.5;" x1="8" x2="262" y1="332" y2="332"/><rect fill="none" height="6" style="stroke: #C82930; stroke-width: 1.0;" width="6" x="15" y="340"/><text fill="#000000" font-family="sans-serif" font-size="11" lengthAdjust="spacingAndGlyphs" textLength="114" x="27" y="346.2104">ligneBool: boolean[]</text><line style="stroke: #A80036; stroke-width: 1.5;" x1="8" x2="262" y1="352.8047" y2="352.8047"/><rect fill="#F24D5C" height="6" style="stroke: #C82930; stroke-width: 1.0;" width="6" x="15" y="360.8047"/><text fill="#000000" font-family="sans-serif" font-size="11" lengthAdjust="spacingAndGlyphs" textLength="230" x="27" y="367.0151">transformLigne(ligne: String[]): boolean[]</text><ellipse cx="18" cy="376.6094" fill="#84BE84" rx="3" ry="3" style="stroke: #038048; stroke-width: 1.0;"/><text fill="#000000" font-family="sans-serif" font-size="11" lengthAdjust="spacingAndGlyphs" textLength="119" x="27" y="379.8198">getLigne(): boolean[]</text><!--MD5=[712b49a80551510261ad10524cc74d81]
class Plateau--><rect codeLine="16" fill="#FEFECE" filter="url(#fgyccw7w6lz3v)" height="137.6328" id="Plateau" style="stroke: #A80036; stroke-width: 1.5;" width="306" x="298" y="274"/><ellipse cx="425.75" cy="290" fill="#ADD1B2" rx="11" ry="11" style="stroke: #A80036; stroke-width: 1.0;"/><path d="M428.0938,285.6719 C427.1563,285.2344 426.5625,285.0938 425.6875,285.0938 C423.0625,285.0938 421.0625,287.1719 421.0625,289.8906 L421.0625,291.0156 C421.0625,293.5938 423.1719,295.4844 426.0625,295.4844 C427.2813,295.4844 428.4375,295.1875 429.1875,294.6406 C429.7656,294.2344 430.0938,293.7813 430.0938,293.3906 C430.0938,292.9375 429.7031,292.5469 429.2344,292.5469 C429.0156,292.5469 428.8125,292.625 428.625,292.8125 C428.1719,293.2969 428.1719,293.2969 427.9844,293.3906 C427.5625,293.6563 426.875,293.7813 426.1094,293.7813 C424.0625,293.7813 422.7656,292.6875 422.7656,290.9844 L422.7656,289.8906 C422.7656,288.1094 424.0156,286.7969 425.75,286.7969 C426.3281,286.7969 426.9375,286.9531 427.4063,287.2031 C427.8906,287.4844 428.0625,287.7031 428.1563,288.1094 C428.2188,288.5156 428.25,288.6406 428.3906,288.7656 C428.5313,288.9063 428.7656,289.0156 428.9844,289.0156 C429.25,289.0156 429.5156,288.875 429.6875,288.6563 C429.7969,288.5 429.8281,288.3125 429.8281,287.8906 L429.8281,286.4688 C429.8281,286.0313 429.8125,285.9063 429.7188,285.75 C429.5625,285.4844 429.2813,285.3438 428.9844,285.3438 C428.6875,285.3438 428.4844,285.4375 428.2656,285.75 L428.0938,285.6719 Z "/><text fill="#000000" font-family="sans-serif" font-size="12" lengthAdjust="spacingAndGlyphs" textLength="42" x="446.25" y="294.1543">Plateau</text><line style="stroke: #A80036; stroke-width: 1.5;" x1="299" x2="603" y1="306" y2="306"/><rect fill="none" height="6" style="stroke: #C82930; stroke-width: 1.0;" width="6" x="306" y="314"/><text fill="#000000" font-family="sans-serif" font-size="11" lengthAdjust="spacingAndGlyphs" textLength="146" x="318" y="320.2104">List&lt;List&lt;Cellule&gt;&gt; grille</text><rect fill="none" height="6" style="stroke: #C82930; stroke-width: 1.0;" width="6" x="306" y="326.8047"/><text fill="#000000" font-family="sans-serif" font-size="11" lengthAdjust="spacingAndGlyphs" textLength="148" x="318" y="333.0151">List&lt;Cellule&gt; grillePointer</text><line style="stroke: #A80036; stroke-width: 1.5;" x1="299" x2="603" y1="339.6094" y2="339.6094"/><ellipse cx="309" cy="350.6094" fill="#84BE84" rx="3" ry="3" style="stroke: #038048; stroke-width: 1.0;"/><text fill="#000000" font-family="sans-serif" font-size="11" lengthAdjust="spacingAndGlyphs" textLength="280" x="318" y="353.8198">remplirPlateau(etatActuel: boolean[], nrLigne: int)</text><ellipse cx="309" cy="363.4141" fill="#84BE84" rx="3" ry="3" style="stroke: #038048; stroke-width: 1.0;"/><text fill="#000000" font-family="sans-serif" font-size="11" lengthAdjust="spacingAndGlyphs" textLength="196" x="318" y="366.6245">enregistrerCellule(cellule: Cellule)</text><ellipse cx="309" cy="376.2188" fill="#84BE84" rx="3" ry="3" style="stroke: #038048; stroke-width: 1.0;"/><text fill="#000000" font-family="sans-serif" font-size="11" lengthAdjust="spacingAndGlyphs" textLength="215" x="318" y="379.4292">getVoisinsVivants(cellule: Cellule): int</text><ellipse cx="309" cy="389.0234" fill="#84BE84" rx="3" ry="3" style="stroke: #038048; stroke-width: 1.0;"/><text fill="#000000" font-family="sans-serif" font-size="11" lengthAdjust="spacingAndGlyphs" textLength="51" x="318" y="392.2339">afficher()</text><ellipse cx="309" cy="401.8281" fill="#84BE84" rx="3" ry="3" style="stroke: #038048; stroke-width: 1.0;"/><text fill="#000000" font-family="sans-serif" font-size="11" lengthAdjust="spacingAndGlyphs" textLength="133" x="318" y="405.0386">iterator(): List&lt;Cellule&gt;</text><!--MD5=[81dd6b40ceb1a21eb4da039063e289ab]
class JeuDeLaVie--><rect codeLine="26" fill="#FEFECE" filter="url(#fgyccw7w6lz3v)" height="86.4141" id="JeuDeLaVie" style="stroke: #A80036; stroke-width: 1.5;" width="121" x="447.5" y="128"/><ellipse cx="471.95" cy="144" fill="#ADD1B2" rx="11" ry="11" style="stroke: #A80036; stroke-width: 1.0;"/><path d="M474.2938,139.6719 C473.3563,139.2344 472.7625,139.0938 471.8875,139.0938 C469.2625,139.0938 467.2625,141.1719 467.2625,143.8906 L467.2625,145.0156 C467.2625,147.5938 469.3719,149.4844 472.2625,149.4844 C473.4813,149.4844 474.6375,149.1875 475.3875,148.6406 C475.9656,148.2344 476.2938,147.7813 476.2938,147.3906 C476.2938,146.9375 475.9031,146.5469 475.4344,146.5469 C475.2156,146.5469 475.0125,146.625 474.825,146.8125 C474.3719,147.2969 474.3719,147.2969 474.1844,147.3906 C473.7625,147.6563 473.075,147.7813 472.3094,147.7813 C470.2625,147.7813 468.9656,146.6875 468.9656,144.9844 L468.9656,143.8906 C468.9656,142.1094 470.2156,140.7969 471.95,140.7969 C472.5281,140.7969 473.1375,140.9531 473.6063,141.2031 C474.0906,141.4844 474.2625,141.7031 474.3563,142.1094 C474.4188,142.5156 474.45,142.6406 474.5906,142.7656 C474.7313,142.9063 474.9656,143.0156 475.1844,143.0156 C475.45,143.0156 475.7156,142.875 475.8875,142.6563 C475.9969,142.5 476.0281,142.3125 476.0281,141.8906 L476.0281,140.4688 C476.0281,140.0313 476.0125,139.9063 475.9188,139.75 C475.7625,139.4844 475.4813,139.3438 475.1844,139.3438 C474.8875,139.3438 474.6844,139.4375 474.4656,139.75 L474.2938,139.6719 Z "/><text fill="#000000" font-family="sans-serif" font-size="12" lengthAdjust="spacingAndGlyphs" textLength="68" x="488.05" y="148.1543">JeuDeLaVie</text><line style="stroke: #A80036; stroke-width: 1.5;" x1="448.5" x2="567.5" y1="160" y2="160"/><rect fill="none" height="6" style="stroke: #C82930; stroke-width: 1.0;" width="6" x="455.5" y="168"/><text fill="#000000" font-family="sans-serif" font-size="11" lengthAdjust="spacingAndGlyphs" textLength="92" x="467.5" y="174.2104">plateau: Plateau</text><rect fill="none" height="6" style="stroke: #C82930; stroke-width: 1.0;" width="6" x="455.5" y="180.8047"/><text fill="#000000" font-family="sans-serif" font-size="11" lengthAdjust="spacingAndGlyphs" textLength="95" x="467.5" y="187.0151">nbSimulation: int</text><line style="stroke: #A80036; stroke-width: 1.5;" x1="448.5" x2="567.5" y1="193.6094" y2="193.6094"/><ellipse cx="458.5" cy="204.6094" fill="#84BE84" rx="3" ry="3" style="stroke: #038048; stroke-width: 1.0;"/><text fill="#000000" font-family="sans-serif" font-size="11" lengthAdjust="spacingAndGlyphs" textLength="50" x="467.5" y="207.8198">simuler()</text><!--MD5=[5a914b73609f412641820e1f6a352f08]
class Cellule--><rect codeLine="32" fill="#FEFECE" filter="url(#fgyccw7w6lz3v)" height="150.4375" id="Cellule" style="stroke: #A80036; stroke-width: 1.5;" width="176" x="273" y="472"/><ellipse cx="336.75" cy="488" fill="#ADD1B2" rx="11" ry="11" style="stroke: #A80036; stroke-width: 1.0;"/><path d="M339.0938,483.6719 C338.1563,483.2344 337.5625,483.0938 336.6875,483.0938 C334.0625,483.0938 332.0625,485.1719 332.0625,487.8906 L332.0625,489.0156 C332.0625,491.5938 334.1719,493.4844 337.0625,493.4844 C338.2813,493.4844 339.4375,493.1875 340.1875,492.6406 C340.7656,492.2344 341.0938,491.7813 341.0938,491.3906 C341.0938,490.9375 340.7031,490.5469 340.2344,490.5469 C340.0156,490.5469 339.8125,490.625 339.625,490.8125 C339.1719,491.2969 339.1719,491.2969 338.9844,491.3906 C338.5625,491.6563 337.875,491.7813 337.1094,491.7813 C335.0625,491.7813 333.7656,490.6875 333.7656,488.9844 L333.7656,487.8906 C333.7656,486.1094 335.0156,484.7969 336.75,484.7969 C337.3281,484.7969 337.9375,484.9531 338.4063,485.2031 C338.8906,485.4844 339.0625,485.7031 339.1563,486.1094 C339.2188,486.5156 339.25,486.6406 339.3906,486.7656 C339.5313,486.9063 339.7656,487.0156 339.9844,487.0156 C340.25,487.0156 340.5156,486.875 340.6875,486.6563 C340.7969,486.5 340.8281,486.3125 340.8281,485.8906 L340.8281,484.4688 C340.8281,484.0313 340.8125,483.9063 340.7188,483.75 C340.5625,483.4844 340.2813,483.3438 339.9844,483.3438 C339.6875,483.3438 339.4844,483.4375 339.2656,483.75 L339.0938,483.6719 Z "/><text fill="#000000" font-family="sans-serif" font-size="12" lengthAdjust="spacingAndGlyphs" textLength="40" x="357.25" y="492.1543">Cellule</text><line style="stroke: #A80036; stroke-width: 1.5;" x1="274" x2="448" y1="504" y2="504"/><rect fill="none" height="6" style="stroke: #C82930; stroke-width: 1.0;" width="6" x="281" y="512"/><text fill="#000000" font-family="sans-serif" font-size="11" lengthAdjust="spacingAndGlyphs" textLength="150" x="293" y="518.2104">emplacement: Coordonee</text><rect fill="none" height="6" style="stroke: #C82930; stroke-width: 1.0;" width="6" x="281" y="524.8047"/><text fill="#000000" font-family="sans-serif" font-size="11" lengthAdjust="spacingAndGlyphs" textLength="95" x="293" y="531.0151">etatVie: boolean</text><line style="stroke: #A80036; stroke-width: 1.5;" x1="274" x2="448" y1="537.6094" y2="537.6094"/><ellipse cx="284" cy="548.6094" fill="#84BE84" rx="3" ry="3" style="stroke: #038048; stroke-width: 1.0;"/><text fill="#000000" font-family="sans-serif" font-size="11" lengthAdjust="spacingAndGlyphs" textLength="89" x="293" y="551.8198">meurt(): Cellule</text><ellipse cx="284" cy="561.4141" fill="#84BE84" rx="3" ry="3" style="stroke: #038048; stroke-width: 1.0;"/><text fill="#000000" font-family="sans-serif" font-size="11" lengthAdjust="spacingAndGlyphs" textLength="107" x="293" y="564.6245">prendVie(): Cellule</text><ellipse cx="284" cy="574.2188" fill="#84BE84" rx="3" ry="3" style="stroke: #038048; stroke-width: 1.0;"/><text fill="#000000" font-family="sans-serif" font-size="11" lengthAdjust="spacingAndGlyphs" textLength="123" x="293" y="577.4292">estVivante(): boolean</text><ellipse cx="284" cy="587.0234" fill="#84BE84" rx="3" ry="3" style="stroke: #038048; stroke-width: 1.0;"/><text fill="#000000" font-family="sans-serif" font-size="11" lengthAdjust="spacingAndGlyphs" textLength="111" x="293" y="590.2339">estMorte(): boolean</text><ellipse cx="284" cy="599.8281" fill="#84BE84" rx="3" ry="3" style="stroke: #038048; stroke-width: 1.0;"/><text fill="#000000" font-family="sans-serif" font-size="11" lengthAdjust="spacingAndGlyphs" textLength="126" x="293" y="603.0386">getCoordonneeX(): int</text><ellipse cx="284" cy="612.6328" fill="#84BE84" rx="3" ry="3" style="stroke: #038048; stroke-width: 1.0;"/><text fill="#000000" font-family="sans-serif" font-size="11" lengthAdjust="spacingAndGlyphs" textLength="125" x="293" y="615.8433">getCoordonneeY(): int</text><!--MD5=[0b5434b671c601be24cd218f65897a03]
class Coordonnee--><rect codeLine="43" fill="#FEFECE" filter="url(#fgyccw7w6lz3v)" height="99.2188" id="Coordonnee" style="stroke: #A80036; stroke-width: 1.5;" width="107" x="307.5" y="682"/><ellipse cx="322.5" cy="698" fill="#ADD1B2" rx="11" ry="11" style="stroke: #A80036; stroke-width: 1.0;"/><path d="M324.8438,693.6719 C323.9063,693.2344 323.3125,693.0938 322.4375,693.0938 C319.8125,693.0938 317.8125,695.1719 317.8125,697.8906 L317.8125,699.0156 C317.8125,701.5938 319.9219,703.4844 322.8125,703.4844 C324.0313,703.4844 325.1875,703.1875 325.9375,702.6406 C326.5156,702.2344 326.8438,701.7813 326.8438,701.3906 C326.8438,700.9375 326.4531,700.5469 325.9844,700.5469 C325.7656,700.5469 325.5625,700.625 325.375,700.8125 C324.9219,701.2969 324.9219,701.2969 324.7344,701.3906 C324.3125,701.6563 323.625,701.7813 322.8594,701.7813 C320.8125,701.7813 319.5156,700.6875 319.5156,698.9844 L319.5156,697.8906 C319.5156,696.1094 320.7656,694.7969 322.5,694.7969 C323.0781,694.7969 323.6875,694.9531 324.1563,695.2031 C324.6406,695.4844 324.8125,695.7031 324.9063,696.1094 C324.9688,696.5156 325,696.6406 325.1406,696.7656 C325.2813,696.9063 325.5156,697.0156 325.7344,697.0156 C326,697.0156 326.2656,696.875 326.4375,696.6563 C326.5469,696.5 326.5781,696.3125 326.5781,695.8906 L326.5781,694.4688 C326.5781,694.0313 326.5625,693.9063 326.4688,693.75 C326.3125,693.4844 326.0313,693.3438 325.7344,693.3438 C325.4375,693.3438 325.2344,693.4375 325.0156,693.75 L324.8438,693.6719 Z "/><text fill="#000000" font-family="sans-serif" font-size="12" lengthAdjust="spacingAndGlyphs" textLength="75" x="336.5" y="702.1543">Coordonnee</text><line style="stroke: #A80036; stroke-width: 1.5;" x1="308.5" x2="413.5" y1="714" y2="714"/><rect fill="none" height="6" style="stroke: #C82930; stroke-width: 1.0;" width="6" x="315.5" y="722"/><text fill="#000000" font-family="sans-serif" font-size="11" lengthAdjust="spacingAndGlyphs" text-decoration="underline" textLength="29" x="327.5" y="728.2104">X: int</text><rect fill="none" height="6" style="stroke: #C82930; stroke-width: 1.0;" width="6" x="315.5" y="734.8047"/><text fill="#000000" font-family="sans-serif" font-size="11" lengthAdjust="spacingAndGlyphs" text-decoration="underline" textLength="28" x="327.5" y="741.0151">Y: int</text><line style="stroke: #A80036; stroke-width: 1.5;" x1="308.5" x2="413.5" y1="747.6094" y2="747.6094"/><ellipse cx="318.5" cy="758.6094" fill="#84BE84" rx="3" ry="3" style="stroke: #038048; stroke-width: 1.0;"/><text fill="#000000" font-family="sans-serif" font-size="11" lengthAdjust="spacingAndGlyphs" textLength="56" x="327.5" y="761.8198">getX(): int</text><ellipse cx="318.5" cy="771.4141" fill="#84BE84" rx="3" ry="3" style="stroke: #038048; stroke-width: 1.0;"/><text fill="#000000" font-family="sans-serif" font-size="11" lengthAdjust="spacingAndGlyphs" textLength="55" x="327.5" y="774.6245">getY(): int</text><!--MD5=[47de47a8b5f06cbc5e036fae0a9149b7]
class Iterable--><rect codeLine="50" fill="#FEFECE" filter="url(#fgyccw7w6lz3v)" height="60.8047" id="Iterable" style="stroke: #A80036; stroke-width: 1.5;" width="113" x="484.5" y="516.5"/><ellipse cx="515.25" cy="532.5" fill="#B4A7E5" rx="11" ry="11" style="stroke: #A80036; stroke-width: 1.0;"/><path d="M516.2031,529.2813 L517.9219,529.2813 C518.3125,529.2813 518.5,529.25 518.625,529.1719 C518.8906,529.0156 519.0313,528.7344 519.0313,528.4375 C519.0313,528.1719 518.9219,527.9063 518.6875,527.7344 C518.5156,527.625 518.375,527.5938 517.9219,527.5938 L512.7813,527.5938 C512.3438,527.5938 512.2188,527.6094 512.0625,527.7031 C511.8125,527.8594 511.6563,528.1563 511.6563,528.4375 C511.6563,528.7188 511.7969,528.9688 512.0156,529.1406 C512.1719,529.25 512.3594,529.2813 512.7813,529.2813 L514.5,529.2813 L514.5,535.7969 L512.7813,535.7969 C512.3438,535.7969 512.2188,535.8125 512.0625,535.9219 C511.8125,536.0781 511.6563,536.3594 511.6563,536.6563 C511.6563,536.9063 511.7969,537.1719 512.0156,537.3281 C512.1719,537.4531 512.375,537.5 512.7813,537.5 L517.9219,537.5 C518.6719,537.5 519.0313,537.2188 519.0313,536.6563 C519.0313,536.375 518.9219,536.125 518.6875,535.9531 C518.5156,535.8281 518.375,535.7969 517.9219,535.7969 L516.2031,535.7969 L516.2031,529.2813 Z "/><text fill="#000000" font-family="sans-serif" font-size="12" font-style="italic" lengthAdjust="spacingAndGlyphs" textLength="46" x="532.75" y="536.6543">Iterable</text><line style="stroke: #A80036; stroke-width: 1.5;" x1="485.5" x2="596.5" y1="548.5" y2="548.5"/><line style="stroke: #A80036; stroke-width: 1.5;" x1="485.5" x2="596.5" y1="556.5" y2="556.5"/><ellipse cx="495.5" cy="567.5" fill="#84BE84" rx="3" ry="3" style="stroke: #038048; stroke-width: 1.0;"/><text fill="#000000" font-family="sans-serif" font-size="11" lengthAdjust="spacingAndGlyphs" textLength="87" x="504.5" y="570.7104">iterator(): Thing</text><!--MD5=[62d8bee24a919cd9dbb2cc9f7bed8c50]
link Main to Read--><path codeLine="54" d="M363.03,68.011 C343.804,86.332 318.849,110.112 297.872,130.1 " fill="none" id="Main-to-Read" style="stroke: #A80036; stroke-width: 1.0;"/><polygon fill="#A80036" points="294.004,133.786,303.2787,130.4725,297.6235,130.3365,297.7595,124.6813,294.004,133.786" style="stroke: #A80036; stroke-width: 1.0;"/><text fill="#000000" font-family="sans-serif" font-size="13" lengthAdjust="spacingAndGlyphs" textLength="8" x="292.061" y="122.9348">1</text><!--MD5=[0b89f4194c612c7501168e71dfe0a771]
link Main to Plateau--><path codeLine="55" d="M399.569,68.153 C408.237,114.308 425.214,204.701 437.29,269 " fill="none" id="Main-to-Plateau" style="stroke: #A80036; stroke-width: 1.0;"/><polygon fill="#A80036" points="438.223,273.971,440.49,264.3866,437.2985,269.0572,432.6279,265.8657,438.223,273.971" style="stroke: #A80036; stroke-width: 1.0;"/><text fill="#000000" font-family="sans-serif" font-size="13" lengthAdjust="spacingAndGlyphs" textLength="8" x="428.4929" y="263.1716">1</text><!--MD5=[a38034e7e00f10a389ccdf57633d9bdd]
link Main to JeuDeLaVie--><path codeLine="56" d="M419.584,68.011 C433.804,84.414 451.818,105.193 467.87,123.71 " fill="none" id="Main-to-JeuDeLaVie" style="stroke: #A80036; stroke-width: 1.0;"/><polygon fill="#A80036" points="471.476,127.869,468.6051,118.4479,468.2016,124.0903,462.5592,123.6869,471.476,127.869" style="stroke: #A80036; stroke-width: 1.0;"/><text fill="#000000" font-family="sans-serif" font-size="13" lengthAdjust="spacingAndGlyphs" textLength="8" x="457.0175" y="116.8442">1</text><!--MD5=[309497e6ea12d1748dbef7e069997521]
link Read to Validation--><path codeLine="57" d="M230.339,208.053 C212.23,233.494 187.805,267.811 168.211,295.34 " fill="none" id="Read-to-Validation" style="stroke: #A80036; stroke-width: 1.0;"/><polygon fill="#A80036" points="165.109,299.698,173.5868,294.6853,168.0084,295.6245,167.0692,290.0462,165.109,299.698" style="stroke: #A80036; stroke-width: 1.0;"/><text fill="#000000" font-family="sans-serif" font-size="13" lengthAdjust="spacingAndGlyphs" textLength="7" x="162.1835" y="288.9643">*</text><!--MD5=[726929e8f5b3336c65955bbdb0572cb4]
link Read to Plateau--><path codeLine="58" d="M297.354,208.053 C318.154,226.186 344.125,248.827 368.763,270.306 " fill="none" id="Read-to-Plateau" style="stroke: #A80036; stroke-width: 1.0;"/><polygon fill="#A80036" points="372.704,273.742,368.5473,264.8133,368.9347,270.4569,363.2911,270.8442,372.704,273.742" style="stroke: #A80036; stroke-width: 1.0;"/><text fill="#000000" font-family="sans-serif" font-size="13" lengthAdjust="spacingAndGlyphs" textLength="8" x="356.2172" y="262.919">1</text><!--MD5=[0eccf1382f12e9c2c4769167cd81ff15]
link JeuDeLaVie to Plateau--><path codeLine="59" d="M493.91,214.022 C488.348,230.61 481.793,250.161 475.503,268.921 " fill="none" id="JeuDeLaVie-to-Plateau" style="stroke: #A80036; stroke-width: 1.0;"/><polygon fill="#A80036" points="473.91,273.672,480.5619,266.409,475.4984,268.931,472.9764,263.8675,473.91,273.672" style="stroke: #A80036; stroke-width: 1.0;"/><text fill="#000000" font-family="sans-serif" font-size="13" lengthAdjust="spacingAndGlyphs" textLength="7" x="468.9117" y="262.8418">*</text><!--MD5=[abe8121f53e4ce7c3bef6cf55d371ea7]
link Plateau to Cellule--><path codeLine="60" d="M420.656,412.106 C412.752,429.845 404.172,449.104 396.047,467.339 " fill="none" id="Plateau-to-Cellule" style="stroke: #A80036; stroke-width: 1.0;"/><polygon fill="#A80036" points="393.992,471.952,401.3079,465.3582,396.0264,467.3846,394,462.1031,393.992,471.952" style="stroke: #A80036; stroke-width: 1.0;"/><text fill="#000000" font-family="sans-serif" font-size="13" lengthAdjust="spacingAndGlyphs" textLength="7" x="389.8951" y="460.8781">*</text><!--MD5=[348ecff0fca4f8ef24fc16781e69ae3a]
link Cellule to Coordonnee--><path codeLine="61" d="M361,622.23 C361,640.474 361,659.659 361,676.727 " fill="none" id="Cellule-to-Coordonnee" style="stroke: #A80036; stroke-width: 1.0;"/><polygon fill="#A80036" points="361,681.9528,365,672.9528,361,676.9528,357,672.9528,361,681.9528" style="stroke: #A80036; stroke-width: 1.0;"/><text fill="#000000" font-family="sans-serif" font-size="13" lengthAdjust="spacingAndGlyphs" textLength="7" x="353.5078" y="670.9916">*</text><!--MD5=[5375b1481a2e77867ea0643d9eb47f08]
link Plateau to Iterable--><path codeLine="62" d="M481.344,412.106 C496.251,445.563 513.565,484.425 525.689,511.635 " fill="none" id="Plateau-to-Iterable" style="stroke: #A80036; stroke-width: 1.0; stroke-dasharray: 7.0,7.0;"/><polygon fill="#A80036" points="527.739,516.237,527.731,506.3881,525.7046,511.6696,520.4231,509.6432,527.739,516.237" style="stroke: #A80036; stroke-width: 1.0;"/><text fill="#000000" font-family="sans-serif" font-size="13" lengthAdjust="spacingAndGlyphs" textLength="0" x="524.5914" y="505.446"/><!--MD5=[a0ccc5d97ac76e868912cd6d00d0e8e8]
@startuml
class Main {
   + {static} main(args: String[])
}

class Read {
   - fichier: String
   + entrerDonnees(): Plateau
}

class Validation {
   - ligneBool: boolean[]
   - transformLigne(ligne: String[]): boolean[]
   + getLigne(): boolean[]
}

class Plateau{
  - List<List<Cellule>> grille
  - List<Cellule> grillePointer
  + remplirPlateau(etatActuel: boolean[], nrLigne: int)
  + enregistrerCellule(cellule: Cellule)
  + getVoisinsVivants(cellule: Cellule): int
  + afficher()
  + iterator(): List<Cellule>
}

class JeuDeLaVie{
  - plateau: Plateau
  - nbSimulation: int
  + simuler()
}

class Cellule{
  - emplacement: Coordonee
  - etatVie: boolean
  + meurt(): Cellule
  + prendVie(): Cellule
  + estVivante(): boolean
  + estMorte(): boolean
  + getCoordonneeX(): int
  + getCoordonneeY(): int
}

class Coordonnee{
  - {static} X: int
  - {static} Y: int
  + getX(): int
  + getY(): int
}

Interface Iterable{
  + iterator(): Thing
}

Main - -> "1" Read
Main - -> "1" Plateau
Main - -> "1" JeuDeLaVie
Read - -> "*" Validation
Read - -> "1" Plateau
JeuDeLaVie - -> "*" Plateau
Plateau - -> "*" Cellule
Cellule - -> "*" Coordonnee
Plateau -[dashed]-> " " Iterable
@enduml

PlantUML version 1.2020.18(Wed Sep 30 19:40:44 UTC 2020)
(GPL source distribution)
Java Runtime: Java(TM) SE Runtime Environment
JVM: Java HotSpot(TM) 64-Bit Server VM
Default Encoding: UTF-8
Language: en
Country: US
--></g></svg>