<?xml version="1.0" encoding="UTF-8" standalone="no"?><svg xmlns="http://www.w3.org/2000/svg" xmlns:xlink="http://www.w3.org/1999/xlink" contentScriptType="application/ecmascript" contentStyleType="text/css" height="1057px" preserveAspectRatio="none" style="width:1290px;height:1057px;" version="1.1" viewBox="0 0 1290 1057" width="1290px" zoomAndPan="magnify"><defs><filter height="300%" id="f4dsvxzsw4uq4" width="300%" x="-1" y="-1"><feGaussianBlur result="blurOut" stdDeviation="2.0"/><feColorMatrix in="blurOut" result="blurOut2" type="matrix" values="0 0 0 0 0 0 0 0 0 0 0 0 0 0 0 0 0 0 .4 0"/><feOffset dx="4.0" dy="4.0" in="blurOut2" result="blurOut3"/><feBlend in="SourceGraphic" in2="blurOut3" mode="normal"/></filter></defs><g><rect fill="#FFFFFF" filter="url(#f4dsvxzsw4uq4)" height="961.1875" style="stroke: #A80036; stroke-width: 1.0;" width="10" x="145" y="71.4297"/><rect fill="#FFFFFF" filter="url(#f4dsvxzsw4uq4)" height="14" style="stroke: #A80036; stroke-width: 1.0;" width="10" x="307" y="100.5625"/><rect fill="#FFFFFF" filter="url(#f4dsvxzsw4uq4)" height="291.9297" style="stroke: #A80036; stroke-width: 1.0;" width="10" x="307" y="143.6953"/><rect fill="#FFFFFF" filter="url(#f4dsvxzsw4uq4)" height="43.1328" style="stroke: #A80036; stroke-width: 1.0;" width="10" x="405" y="240.0938"/><rect fill="#FFFFFF" filter="url(#f4dsvxzsw4uq4)" height="14" style="stroke: #A80036; stroke-width: 1.0;" width="10" x="524" y="464.7578"/><rect fill="#FFFFFF" filter="url(#f4dsvxzsw4uq4)" height="495.5938" style="stroke: #A80036; stroke-width: 1.0;" width="10" x="524" y="507.8906"/><rect fill="#FFFFFF" filter="url(#f4dsvxzsw4uq4)" height="14" style="stroke: #A80036; stroke-width: 1.0;" width="10" x="695" y="172.8281"/><rect fill="#FFFFFF" filter="url(#f4dsvxzsw4uq4)" height="138.3984" style="stroke: #A80036; stroke-width: 1.0;" width="10" x="695" y="283.2266"/><rect fill="#FFFFFF" filter="url(#f4dsvxzsw4uq4)" height="186.5313" style="stroke: #A80036; stroke-width: 1.0;" width="10" x="695" y="628.4219"/><rect fill="#FFFFFF" filter="url(#f4dsvxzsw4uq4)" height="14" style="stroke: #A80036; stroke-width: 1.0;" width="10" x="695" y="923.3516"/><rect fill="#FFFFFF" filter="url(#f4dsvxzsw4uq4)" height="30" style="stroke: #A80036; stroke-width: 1.0;" width="10" x="695" y="973.4844"/><rect fill="#FFFFFF" filter="url(#f4dsvxzsw4uq4)" height="14" style="stroke: #A80036; stroke-width: 1.0;" width="10" x="809" y="561.1563"/><rect fill="#FFFFFF" filter="url(#f4dsvxzsw4uq4)" height="43.1328" style="stroke: #A80036; stroke-width: 1.0;" width="10" x="809" y="844.0859"/><rect fill="#FFFFFF" filter="url(#f4dsvxzsw4uq4)" height="14" style="stroke: #A80036; stroke-width: 1.0;" width="10" x="809" y="923.3516"/><rect fill="#FFFFFF" filter="url(#f4dsvxzsw4uq4)" height="57.1328" style="stroke: #A80036; stroke-width: 1.0;" width="10" x="926" y="336.4922"/><rect fill="#FFFFFF" filter="url(#f4dsvxzsw4uq4)" height="57.1328" style="stroke: #A80036; stroke-width: 1.0;" width="10" x="926" y="657.5547"/><rect fill="#FFFFFF" filter="url(#f4dsvxzsw4uq4)" height="57.1328" style="stroke: #A80036; stroke-width: 1.0;" width="10" x="926" y="743.8203"/><rect fill="#FFFFFF" filter="url(#f4dsvxzsw4uq4)" height="14" style="stroke: #A80036; stroke-width: 1.0;" width="10" x="1049" y="365.625"/><rect fill="#FFFFFF" filter="url(#f4dsvxzsw4uq4)" height="14" style="stroke: #A80036; stroke-width: 1.0;" width="10" x="1049" y="686.6875"/><rect fill="#FFFFFF" filter="url(#f4dsvxzsw4uq4)" height="14" style="stroke: #A80036; stroke-width: 1.0;" width="10" x="1049" y="772.9531"/><rect fill="#FFFFFF" filter="url(#f4dsvxzsw4uq4)" height="14" style="stroke: #A80036; stroke-width: 1.0;" width="10" x="1187.5" y="873.2188"/><rect fill="#FFFFFF" filter="url(#f4dsvxzsw4uq4)" height="206.7969" style="stroke: #000000; stroke-width: 2.0;" width="871.5" x="267.5" y="201.8281"/><rect fill="#FFFFFF" filter="url(#f4dsvxzsw4uq4)" height="103.3984" style="stroke: #000000; stroke-width: 2.0;" width="484" x="645" y="298.2266"/><rect fill="#FFFFFF" filter="url(#f4dsvxzsw4uq4)" height="422.4609" style="stroke: #000000; stroke-width: 2.0;" width="822.5" x="453.5" y="522.8906"/><rect fill="#FFFFFF" filter="url(#f4dsvxzsw4uq4)" height="305.0625" style="stroke: #000000; stroke-width: 2.0;" width="802.5" x="463.5" y="590.1563"/><line style="stroke: #A80036; stroke-width: 1.0; stroke-dasharray: 5.0,5.0;" x1="149.5" x2="149.5" y1="40.2969" y2="1050.6172"/><line style="stroke: #A80036; stroke-width: 1.0; stroke-dasharray: 5.0,5.0;" x1="311.5" x2="311.5" y1="40.2969" y2="1050.6172"/><line style="stroke: #A80036; stroke-width: 1.0; stroke-dasharray: 5.0,5.0;" x1="409.5" x2="409.5" y1="40.2969" y2="1050.6172"/><line style="stroke: #A80036; stroke-width: 1.0; stroke-dasharray: 5.0,5.0;" x1="528.5" x2="528.5" y1="40.2969" y2="1050.6172"/><line style="stroke: #A80036; stroke-width: 1.0; stroke-dasharray: 5.0,5.0;" x1="700" x2="700" y1="40.2969" y2="1050.6172"/><line style="stroke: #A80036; stroke-width: 1.0; stroke-dasharray: 5.0,5.0;" x1="814" x2="814" y1="40.2969" y2="1050.6172"/><line style="stroke: #A80036; stroke-width: 1.0; stroke-dasharray: 5.0,5.0;" x1="931" x2="931" y1="40.2969" y2="1050.6172"/><line style="stroke: #A80036; stroke-width: 1.0; stroke-dasharray: 5.0,5.0;" x1="1054" x2="1054" y1="40.2969" y2="1050.6172"/><line style="stroke: #A80036; stroke-width: 1.0; stroke-dasharray: 5.0,5.0;" x1="1192" x2="1192" y1="40.2969" y2="1050.6172"/><rect fill="#FEFECE" filter="url(#f4dsvxzsw4uq4)" height="30.2969" style="stroke: #A80036; stroke-width: 1.5;" width="47" x="124.5" y="5"/><text fill="#000000" font-family="sans-serif" font-size="14" lengthAdjust="spacingAndGlyphs" textLength="33" x="131.5" y="24.9951">Main</text><rect fill="#FEFECE" filter="url(#f4dsvxzsw4uq4)" height="30.2969" style="stroke: #A80036; stroke-width: 1.5;" width="65" x="277.5" y="5"/><text fill="#000000" font-family="sans-serif" font-size="14" lengthAdjust="spacingAndGlyphs" textLength="51" x="284.5" y="24.9951">r: Read</text><rect fill="#FEFECE" filter="url(#f4dsvxzsw4uq4)" height="30.2969" style="stroke: #A80036; stroke-width: 1.5;" width="103" x="356.5" y="5"/><text fill="#000000" font-family="sans-serif" font-size="14" lengthAdjust="spacingAndGlyphs" textLength="89" x="363.5" y="24.9951">v: Validation</text><rect fill="#FEFECE" filter="url(#f4dsvxzsw4uq4)" height="30.2969" style="stroke: #A80036; stroke-width: 1.5;" width="107" x="473.5" y="5"/><text fill="#000000" font-family="sans-serif" font-size="14" lengthAdjust="spacingAndGlyphs" textLength="93" x="480.5" y="24.9951">j: JeuDeLaVie</text><rect fill="#FEFECE" filter="url(#f4dsvxzsw4uq4)" height="30.2969" style="stroke: #A80036; stroke-width: 1.5;" width="86" x="655" y="5"/><text fill="#000000" font-family="sans-serif" font-size="14" lengthAdjust="spacingAndGlyphs" textLength="72" x="662" y="24.9951">p: Plateau</text><rect fill="#FEFECE" filter="url(#f4dsvxzsw4uq4)" height="30.2969" style="stroke: #A80036; stroke-width: 1.5;" width="114" x="755" y="5"/><text fill="#000000" font-family="sans-serif" font-size="14" lengthAdjust="spacingAndGlyphs" textLength="100" x="762" y="24.9951">newP: Plateau</text><rect fill="#FEFECE" filter="url(#f4dsvxzsw4uq4)" height="30.2969" style="stroke: #A80036; stroke-width: 1.5;" width="92" x="883" y="5"/><text fill="#000000" font-family="sans-serif" font-size="14" lengthAdjust="spacingAndGlyphs" textLength="78" x="890" y="24.9951">cel: Cellule</text><rect fill="#FEFECE" filter="url(#f4dsvxzsw4uq4)" height="30.2969" style="stroke: #A80036; stroke-width: 1.5;" width="126" x="989" y="5"/><text fill="#000000" font-family="sans-serif" font-size="14" lengthAdjust="spacingAndGlyphs" textLength="112" x="996" y="24.9951">c: Coordonnees</text><rect fill="#FEFECE" filter="url(#f4dsvxzsw4uq4)" height="30.2969" style="stroke: #A80036; stroke-width: 1.5;" width="123" x="1129" y="5"/><text fill="#000000" font-family="sans-serif" font-size="14" lengthAdjust="spacingAndGlyphs" textLength="109" x="1136" y="24.9951">newCel: Cellule</text><rect fill="#FFFFFF" filter="url(#f4dsvxzsw4uq4)" height="961.1875" style="stroke: #A80036; stroke-width: 1.0;" width="10" x="145" y="71.4297"/><rect fill="#FFFFFF" filter="url(#f4dsvxzsw4uq4)" height="14" style="stroke: #A80036; stroke-width: 1.0;" width="10" x="307" y="100.5625"/><rect fill="#FFFFFF" filter="url(#f4dsvxzsw4uq4)" height="291.9297" style="stroke: #A80036; stroke-width: 1.0;" width="10" x="307" y="143.6953"/><rect fill="#FFFFFF" filter="url(#f4dsvxzsw4uq4)" height="43.1328" style="stroke: #A80036; stroke-width: 1.0;" width="10" x="405" y="240.0938"/><rect fill="#FFFFFF" filter="url(#f4dsvxzsw4uq4)" height="14" style="stroke: #A80036; stroke-width: 1.0;" width="10" x="524" y="464.7578"/><rect fill="#FFFFFF" filter="url(#f4dsvxzsw4uq4)" height="495.5938" style="stroke: #A80036; stroke-width: 1.0;" width="10" x="524" y="507.8906"/><rect fill="#FFFFFF" filter="url(#f4dsvxzsw4uq4)" height="14" style="stroke: #A80036; stroke-width: 1.0;" width="10" x="695" y="172.8281"/><rect fill="#FFFFFF" filter="url(#f4dsvxzsw4uq4)" height="138.3984" style="stroke: #A80036; stroke-width: 1.0;" width="10" x="695" y="283.2266"/><rect fill="#FFFFFF" filter="url(#f4dsvxzsw4uq4)" height="186.5313" style="stroke: #A80036; stroke-width: 1.0;" width="10" x="695" y="628.4219"/><rect fill="#FFFFFF" filter="url(#f4dsvxzsw4uq4)" height="14" style="stroke: #A80036; stroke-width: 1.0;" width="10" x="695" y="923.3516"/><rect fill="#FFFFFF" filter="url(#f4dsvxzsw4uq4)" height="30" style="stroke: #A80036; stroke-width: 1.0;" width="10" x="695" y="973.4844"/><rect fill="#FFFFFF" filter="url(#f4dsvxzsw4uq4)" height="14" style="stroke: #A80036; stroke-width: 1.0;" width="10" x="809" y="561.1563"/><rect fill="#FFFFFF" filter="url(#f4dsvxzsw4uq4)" height="43.1328" style="stroke: #A80036; stroke-width: 1.0;" width="10" x="809" y="844.0859"/><rect fill="#FFFFFF" filter="url(#f4dsvxzsw4uq4)" height="14" style="stroke: #A80036; stroke-width: 1.0;" width="10" x="809" y="923.3516"/><rect fill="#FFFFFF" filter="url(#f4dsvxzsw4uq4)" height="57.1328" style="stroke: #A80036; stroke-width: 1.0;" width="10" x="926" y="336.4922"/><rect fill="#FFFFFF" filter="url(#f4dsvxzsw4uq4)" height="57.1328" style="stroke: #A80036; stroke-width: 1.0;" width="10" x="926" y="657.5547"/><rect fill="#FFFFFF" filter="url(#f4dsvxzsw4uq4)" height="57.1328" style="stroke: #A80036; stroke-width: 1.0;" width="10" x="926" y="743.8203"/><rect fill="#FFFFFF" filter="url(#f4dsvxzsw4uq4)" height="14" style="stroke: #A80036; stroke-width: 1.0;" width="10" x="1049" y="365.625"/><rect fill="#FFFFFF" filter="url(#f4dsvxzsw4uq4)" height="14" style="stroke: #A80036; stroke-width: 1.0;" width="10" x="1049" y="686.6875"/><rect fill="#FFFFFF" filter="url(#f4dsvxzsw4uq4)" height="14" style="stroke: #A80036; stroke-width: 1.0;" width="10" x="1049" y="772.9531"/><rect fill="#FFFFFF" filter="url(#f4dsvxzsw4uq4)" height="14" style="stroke: #A80036; stroke-width: 1.0;" width="10" x="1187.5" y="873.2188"/><polygon fill="#A80036" points="133,67.4297,143,71.4297,133,75.4297,137,71.4297" style="stroke: #A80036; stroke-width: 1.0;"/><line style="stroke: #A80036; stroke-width: 1.0;" x1="0" x2="139" y1="71.4297" y2="71.4297"/><text fill="#000000" font-family="sans-serif" font-size="13" lengthAdjust="spacingAndGlyphs" textLength="126" x="7" y="66.3638">main(args: String[])</text><polygon fill="#A80036" points="295,96.5625,305,100.5625,295,104.5625,299,100.5625" style="stroke: #A80036; stroke-width: 1.0;"/><line style="stroke: #A80036; stroke-width: 1.0;" x1="155" x2="301" y1="100.5625" y2="100.5625"/><text fill="#000000" font-family="sans-serif" font-size="13" lengthAdjust="spacingAndGlyphs" textLength="72" x="162" y="95.4966">this(fichier)</text><polygon fill="#A80036" points="166,110.5625,156,114.5625,166,118.5625,162,114.5625" style="stroke: #A80036; stroke-width: 1.0;"/><line style="stroke: #A80036; stroke-width: 1.0; stroke-dasharray: 2.0,2.0;" x1="160" x2="311" y1="114.5625" y2="114.5625"/><polygon fill="#A80036" points="295,139.6953,305,143.6953,295,147.6953,299,143.6953" style="stroke: #A80036; stroke-width: 1.0;"/><line style="stroke: #A80036; stroke-width: 1.0;" x1="155" x2="301" y1="143.6953" y2="143.6953"/><text fill="#000000" font-family="sans-serif" font-size="13" lengthAdjust="spacingAndGlyphs" textLength="133" x="162" y="138.6294">p(r.entrerDonnees())</text><polygon fill="#A80036" points="683,168.8281,693,172.8281,683,176.8281,687,172.8281" style="stroke: #A80036; stroke-width: 1.0;"/><line style="stroke: #A80036; stroke-width: 1.0;" x1="317" x2="689" y1="172.8281" y2="172.8281"/><text fill="#000000" font-family="sans-serif" font-size="13" lengthAdjust="spacingAndGlyphs" textLength="33" x="324" y="167.7622">this()</text><polygon fill="#A80036" points="328,182.8281,318,186.8281,328,190.8281,324,186.8281" style="stroke: #A80036; stroke-width: 1.0;"/><line style="stroke: #A80036; stroke-width: 1.0; stroke-dasharray: 2.0,2.0;" x1="322" x2="699" y1="186.8281" y2="186.8281"/><path d="M267.5,201.8281 L345.5,201.8281 L345.5,208.8281 L335.5,218.8281 L267.5,218.8281 L267.5,201.8281 " fill="#EEEEEE" style="stroke: #000000; stroke-width: 1.0;"/><rect fill="none" height="206.7969" style="stroke: #000000; stroke-width: 2.0;" width="871.5" x="267.5" y="201.8281"/><text fill="#000000" font-family="sans-serif" font-size="13" font-weight="bold" lengthAdjust="spacingAndGlyphs" textLength="33" x="282.5" y="214.895">loop</text><text fill="#000000" font-family="sans-serif" font-size="11" font-weight="bold" lengthAdjust="spacingAndGlyphs" textLength="112" x="360.5" y="214.0386">[while (readline)]</text><polygon fill="#A80036" points="393,236.0938,403,240.0938,393,244.0938,397,240.0938" style="stroke: #A80036; stroke-width: 1.0;"/><line style="stroke: #A80036; stroke-width: 1.0;" x1="317" x2="399" y1="240.0938" y2="240.0938"/><text fill="#000000" font-family="sans-serif" font-size="13" lengthAdjust="spacingAndGlyphs" textLength="63" x="324" y="235.0278">this(ligne)</text><polygon fill="#A80036" points="328,250.0938,318,254.0938,328,258.0938,324,254.0938" style="stroke: #A80036; stroke-width: 1.0;"/><line style="stroke: #A80036; stroke-width: 1.0; stroke-dasharray: 2.0,2.0;" x1="322" x2="404" y1="254.0938" y2="254.0938"/><polygon fill="#A80036" points="683,279.2266,693,283.2266,683,287.2266,687,283.2266" style="stroke: #A80036; stroke-width: 1.0;"/><line style="stroke: #A80036; stroke-width: 1.0;" x1="317" x2="689" y1="283.2266" y2="283.2266"/><text fill="#000000" font-family="sans-serif" font-size="13" lengthAdjust="spacingAndGlyphs" textLength="225" x="324" y="278.1606">remplirPlateau(v.getLigne, nrLigne)</text><path d="M645,298.2266 L723,298.2266 L723,305.2266 L713,315.2266 L645,315.2266 L645,298.2266 " fill="#EEEEEE" style="stroke: #000000; stroke-width: 1.0;"/><rect fill="none" height="103.3984" style="stroke: #000000; stroke-width: 2.0;" width="484" x="645" y="298.2266"/><text fill="#000000" font-family="sans-serif" font-size="13" font-weight="bold" lengthAdjust="spacingAndGlyphs" textLength="33" x="660" y="311.2935">loop</text><text fill="#000000" font-family="sans-serif" font-size="11" font-weight="bold" lengthAdjust="spacingAndGlyphs" textLength="125" x="738" y="310.437">[for (ligne.length)]</text><polygon fill="#A80036" points="914,332.4922,924,336.4922,914,340.4922,918,336.4922" style="stroke: #A80036; stroke-width: 1.0;"/><line style="stroke: #A80036; stroke-width: 1.0;" x1="705" x2="920" y1="336.4922" y2="336.4922"/><text fill="#000000" font-family="sans-serif" font-size="13" lengthAdjust="spacingAndGlyphs" textLength="57" x="712" y="331.4263">add(this)</text><polygon fill="#A80036" points="1037,361.625,1047,365.625,1037,369.625,1041,365.625" style="stroke: #A80036; stroke-width: 1.0;"/><line style="stroke: #A80036; stroke-width: 1.0;" x1="936" x2="1043" y1="365.625" y2="365.625"/><text fill="#000000" font-family="sans-serif" font-size="13" lengthAdjust="spacingAndGlyphs" textLength="53" x="943" y="360.5591">this(x,y)</text><polygon fill="#A80036" points="947,375.625,937,379.625,947,383.625,943,379.625" style="stroke: #A80036; stroke-width: 1.0;"/><line style="stroke: #A80036; stroke-width: 1.0; stroke-dasharray: 2.0,2.0;" x1="941" x2="1053" y1="379.625" y2="379.625"/><polygon fill="#A80036" points="716,389.625,706,393.625,716,397.625,712,393.625" style="stroke: #A80036; stroke-width: 1.0;"/><line style="stroke: #A80036; stroke-width: 1.0; stroke-dasharray: 2.0,2.0;" x1="710" x2="930" y1="393.625" y2="393.625"/><polygon fill="#A80036" points="328,417.625,318,421.625,328,425.625,324,421.625" style="stroke: #A80036; stroke-width: 1.0;"/><line style="stroke: #A80036; stroke-width: 1.0; stroke-dasharray: 2.0,2.0;" x1="322" x2="699" y1="421.625" y2="421.625"/><polygon fill="#A80036" points="166,431.625,156,435.625,166,439.625,162,435.625" style="stroke: #A80036; stroke-width: 1.0;"/><line style="stroke: #A80036; stroke-width: 1.0; stroke-dasharray: 2.0,2.0;" x1="160" x2="311" y1="435.625" y2="435.625"/><polygon fill="#A80036" points="512,460.7578,522,464.7578,512,468.7578,516,464.7578" style="stroke: #A80036; stroke-width: 1.0;"/><line style="stroke: #A80036; stroke-width: 1.0;" x1="155" x2="518" y1="464.7578" y2="464.7578"/><text fill="#000000" font-family="sans-serif" font-size="13" lengthAdjust="spacingAndGlyphs" textLength="128" x="162" y="459.6919">this(p,nbSimulation)</text><polygon fill="#A80036" points="166,474.7578,156,478.7578,166,482.7578,162,478.7578" style="stroke: #A80036; stroke-width: 1.0;"/><line style="stroke: #A80036; stroke-width: 1.0; stroke-dasharray: 2.0,2.0;" x1="160" x2="528" y1="478.7578" y2="478.7578"/><polygon fill="#A80036" points="512,503.8906,522,507.8906,512,511.8906,516,507.8906" style="stroke: #A80036; stroke-width: 1.0;"/><line style="stroke: #A80036; stroke-width: 1.0;" x1="155" x2="518" y1="507.8906" y2="507.8906"/><text fill="#000000" font-family="sans-serif" font-size="13" lengthAdjust="spacingAndGlyphs" textLength="64" x="162" y="502.8247">j.simuler()</text><path d="M453.5,522.8906 L531.5,522.8906 L531.5,529.8906 L521.5,539.8906 L453.5,539.8906 L453.5,522.8906 " fill="#EEEEEE" style="stroke: #000000; stroke-width: 1.0;"/><rect fill="none" height="422.4609" style="stroke: #000000; stroke-width: 2.0;" width="822.5" x="453.5" y="522.8906"/><text fill="#000000" font-family="sans-serif" font-size="13" font-weight="bold" lengthAdjust="spacingAndGlyphs" textLength="33" x="468.5" y="535.9575">loop</text><text fill="#000000" font-family="sans-serif" font-size="11" font-weight="bold" lengthAdjust="spacingAndGlyphs" textLength="134" x="546.5" y="535.1011">[for (nbSimulation)]</text><polygon fill="#A80036" points="797,557.1563,807,561.1563,797,565.1563,801,561.1563" style="stroke: #A80036; stroke-width: 1.0;"/><line style="stroke: #A80036; stroke-width: 1.0;" x1="534" x2="803" y1="561.1563" y2="561.1563"/><text fill="#000000" font-family="sans-serif" font-size="13" lengthAdjust="spacingAndGlyphs" textLength="33" x="541" y="556.0903">this()</text><polygon fill="#A80036" points="545,571.1563,535,575.1563,545,579.1563,541,575.1563" style="stroke: #A80036; stroke-width: 1.0;"/><line style="stroke: #A80036; stroke-width: 1.0; stroke-dasharray: 2.0,2.0;" x1="539" x2="813" y1="575.1563" y2="575.1563"/><path d="M463.5,590.1563 L541.5,590.1563 L541.5,597.1563 L531.5,607.1563 L463.5,607.1563 L463.5,590.1563 " fill="#EEEEEE" style="stroke: #000000; stroke-width: 1.0;"/><rect fill="none" height="305.0625" style="stroke: #000000; stroke-width: 2.0;" width="802.5" x="463.5" y="590.1563"/><text fill="#000000" font-family="sans-serif" font-size="13" font-weight="bold" lengthAdjust="spacingAndGlyphs" textLength="33" x="478.5" y="603.2231">loop</text><text fill="#000000" font-family="sans-serif" font-size="11" font-weight="bold" lengthAdjust="spacingAndGlyphs" textLength="77" x="556.5" y="602.3667">[for (cel:p)]</text><polygon fill="#A80036" points="683,624.4219,693,628.4219,683,632.4219,687,628.4219" style="stroke: #A80036; stroke-width: 1.0;"/><line style="stroke: #A80036; stroke-width: 1.0;" x1="534" x2="689" y1="628.4219" y2="628.4219"/><text fill="#000000" font-family="sans-serif" font-size="13" lengthAdjust="spacingAndGlyphs" textLength="142" x="541" y="623.356">getVoisinsVivants(cel)</text><polygon fill="#A80036" points="914,653.5547,924,657.5547,914,661.5547,918,657.5547" style="stroke: #A80036; stroke-width: 1.0;"/><line style="stroke: #A80036; stroke-width: 1.0;" x1="705" x2="920" y1="657.5547" y2="657.5547"/><text fill="#000000" font-family="sans-serif" font-size="13" lengthAdjust="spacingAndGlyphs" textLength="78" x="712" y="652.4888">getCoordX()</text><polygon fill="#A80036" points="1037,682.6875,1047,686.6875,1037,690.6875,1041,686.6875" style="stroke: #A80036; stroke-width: 1.0;"/><line style="stroke: #A80036; stroke-width: 1.0;" x1="936" x2="1043" y1="686.6875" y2="686.6875"/><text fill="#000000" font-family="sans-serif" font-size="13" lengthAdjust="spacingAndGlyphs" textLength="40" x="943" y="681.6216">getX()</text><polygon fill="#A80036" points="947,696.6875,937,700.6875,947,704.6875,943,700.6875" style="stroke: #A80036; stroke-width: 1.0;"/><line style="stroke: #A80036; stroke-width: 1.0; stroke-dasharray: 2.0,2.0;" x1="941" x2="1053" y1="700.6875" y2="700.6875"/><polygon fill="#A80036" points="716,710.6875,706,714.6875,716,718.6875,712,714.6875" style="stroke: #A80036; stroke-width: 1.0;"/><line style="stroke: #A80036; stroke-width: 1.0; stroke-dasharray: 2.0,2.0;" x1="710" x2="930" y1="714.6875" y2="714.6875"/><polygon fill="#A80036" points="914,739.8203,924,743.8203,914,747.8203,918,743.8203" style="stroke: #A80036; stroke-width: 1.0;"/><line style="stroke: #A80036; stroke-width: 1.0;" x1="705" x2="920" y1="743.8203" y2="743.8203"/><text fill="#000000" font-family="sans-serif" font-size="13" lengthAdjust="spacingAndGlyphs" textLength="77" x="712" y="738.7544">getCoordY()</text><polygon fill="#A80036" points="1037,768.9531,1047,772.9531,1037,776.9531,1041,772.9531" style="stroke: #A80036; stroke-width: 1.0;"/><line style="stroke: #A80036; stroke-width: 1.0;" x1="936" x2="1043" y1="772.9531" y2="772.9531"/><text fill="#000000" font-family="sans-serif" font-size="13" lengthAdjust="spacingAndGlyphs" textLength="39" x="943" y="767.8872">getY()</text><polygon fill="#A80036" points="947,782.9531,937,786.9531,947,790.9531,943,786.9531" style="stroke: #A80036; stroke-width: 1.0;"/><line style="stroke: #A80036; stroke-width: 1.0; stroke-dasharray: 2.0,2.0;" x1="941" x2="1053" y1="786.9531" y2="786.9531"/><polygon fill="#A80036" points="716,796.9531,706,800.9531,716,804.9531,712,800.9531" style="stroke: #A80036; stroke-width: 1.0;"/><line style="stroke: #A80036; stroke-width: 1.0; stroke-dasharray: 2.0,2.0;" x1="710" x2="930" y1="800.9531" y2="800.9531"/><polygon fill="#A80036" points="545,810.9531,535,814.9531,545,818.9531,541,814.9531" style="stroke: #A80036; stroke-width: 1.0;"/><line style="stroke: #A80036; stroke-width: 1.0; stroke-dasharray: 2.0,2.0;" x1="539" x2="699" y1="814.9531" y2="814.9531"/><polygon fill="#A80036" points="797,840.0859,807,844.0859,797,848.0859,801,844.0859" style="stroke: #A80036; stroke-width: 1.0;"/><line style="stroke: #A80036; stroke-width: 1.0;" x1="534" x2="803" y1="844.0859" y2="844.0859"/><text fill="#000000" font-family="sans-serif" font-size="13" lengthAdjust="spacingAndGlyphs" textLength="140" x="541" y="839.02">enregistrerCellule(cel)</text><polygon fill="#A80036" points="1175.5,869.2188,1185.5,873.2188,1175.5,877.2188,1179.5,873.2188" style="stroke: #A80036; stroke-width: 1.0;"/><line style="stroke: #A80036; stroke-width: 1.0;" x1="819" x2="1181.5" y1="873.2188" y2="873.2188"/><text fill="#000000" font-family="sans-serif" font-size="13" lengthAdjust="spacingAndGlyphs" textLength="52" x="826" y="868.1528">add(cel)</text><polygon fill="#A80036" points="825,883.2188,815,887.2188,825,891.2188,821,887.2188" style="stroke: #A80036; stroke-width: 1.0;"/><line style="stroke: #A80036; stroke-width: 1.0; stroke-dasharray: 2.0,2.0;" x1="819" x2="1191.5" y1="887.2188" y2="887.2188"/><polygon fill="#A80036" points="797,919.3516,807,923.3516,797,927.3516,801,923.3516" style="stroke: #A80036; stroke-width: 1.0;"/><line style="stroke: #A80036; stroke-width: 1.0;" x1="534" x2="803" y1="923.3516" y2="923.3516"/><text fill="#000000" font-family="sans-serif" font-size="13" lengthAdjust="spacingAndGlyphs" textLength="53" x="541" y="918.2856">p(newP)</text><polygon fill="#A80036" points="711,933.3516,701,937.3516,711,941.3516,707,937.3516" style="stroke: #A80036; stroke-width: 1.0;"/><line style="stroke: #A80036; stroke-width: 1.0; stroke-dasharray: 2.0,2.0;" x1="705" x2="813" y1="937.3516" y2="937.3516"/><polygon fill="#A80036" points="683,969.4844,693,973.4844,683,977.4844,687,973.4844" style="stroke: #A80036; stroke-width: 1.0;"/><line style="stroke: #A80036; stroke-width: 1.0;" x1="534" x2="689" y1="973.4844" y2="973.4844"/><text fill="#000000" font-family="sans-serif" font-size="13" lengthAdjust="spacingAndGlyphs" textLength="59" x="541" y="968.4185">afficher()</text><polygon fill="#A80036" points="11,1028.6172,1,1032.6172,11,1036.6172,7,1032.6172" style="stroke: #A80036; stroke-width: 1.0;"/><line style="stroke: #A80036; stroke-width: 1.0; stroke-dasharray: 2.0,2.0;" x1="5" x2="149" y1="1032.6172" y2="1032.6172"/><text fill="#000000" font-family="sans-serif" font-size="13" lengthAdjust="spacingAndGlyphs" textLength="34" x="17" y="1027.5513">exit()</text><!--MD5=[37ec642e944607b98f3bcfbb34e34be1]
@startuml
hide footbox

participant "Main" as M
participant "r: Read" as R
participant "v: Validation" as V
participant "j: JeuDeLaVie" as J
participant "p: Plateau" as P
participant "newP: Plateau" as NP
participant "cel: Cellule" as Cel
participant "c: Coordonnees" as C
participant "newCel: Cellule" as NCel


[-> M: main(args: String[])
activate M
    M -> R: this(fichier)
    activate R
         R - -> M
    deactivate R
    M -> R: p(r.entrerDonnees())
    activate R
        R -> P: this()
        activate P
            P - -> R
        deactivate P
        loop while (readline)
            R -> V: this(ligne)
            activate V
                V - -> R
                R -> P: remplirPlateau(v.getLigne, nrLigne)
            deactivate V
            loop for (ligne.length)
                activate P
                    P -> Cel: add(this)
                    activate Cel
                        Cel -> C: this(x,y)
                        activate C
                            C - -> Cel
                        deactivate C
                        Cel - -> P
                    deactivate Cel
            end
        end
                    P - -> R
                deactivate P
        R - -> M
    deactivate R
    M -> J: this(p,nbSimulation)
    activate J
        J - -> M
    deactivate J
    M -> J: j.simuler()
    activate J
        loop for (nbSimulation)
        J -> NP: this()
        activate NP
            NP - -> J
        deactivate NP
        loop for (cel:p)
        J -> P: getVoisinsVivants(cel)
        activate P
            P -> Cel: getCoordX()
            activate Cel
                Cel -> C: getX()
                activate C
                    C - -> Cel
                deactivate C
                Cel - -> P
            deactivate Cel

            P -> Cel: getCoordY()
            activate Cel
                Cel -> C: getY()
                activate C
                    C - -> Cel
                deactivate C
                Cel - -> P
            deactivate Cel
            P - -> J
        deactivate P
        J -> NP: enregistrerCellule(cel)
        activate NP
            NP -> NCel:add(cel)
            activate NCel
            NCel - -> NP
            deactivate NCel

        deactivate NP
        end
        J -> NP:p(newP)
        activate NP
            activate P
            NP - -> P
            deactivate P
        deactivate NP
    end
        J -> P: afficher()
        activate P
        deactivate P
    deactivate J
    [<- - M:exit()
deactivate M
@enduml

PlantUML version 1.2020.18(Wed Sep 30 19:40:44 UTC 2020)
(GPL source distribution)
Java Runtime: Java(TM) SE Runtime Environment
JVM: Java HotSpot(TM) 64-Bit Server VM
Default Encoding: UTF-8
Language: en
Country: US
--></g></svg>