<?xml version="1.0" encoding="UTF-8" standalone="no"?><svg xmlns="http://www.w3.org/2000/svg" xmlns:xlink="http://www.w3.org/1999/xlink" contentScriptType="application/ecmascript" contentStyleType="text/css" height="141px" preserveAspectRatio="none" style="width:204px;height:141px;" version="1.1" viewBox="0 0 204 141" width="204px" zoomAndPan="magnify"><defs><filter height="300%" id="f1ieec9tl2alp9" width="300%" x="-1" y="-1"><feGaussianBlur result="blurOut" stdDeviation="2.0"/><feColorMatrix in="blurOut" result="blurOut2" type="matrix" values="0 0 0 0 0 0 0 0 0 0 0 0 0 0 0 0 0 0 .4 0"/><feOffset dx="4.0" dy="4.0" in="blurOut2" result="blurOut3"/><feBlend in="SourceGraphic" in2="blurOut3" mode="normal"/></filter></defs><g><rect fill="#FFFFFF" filter="url(#f1ieec9tl2alp9)" height="8" style="stroke: #FFFFFF; stroke-width: 1.0;" width="10" x="148" y="69.4297"/><line style="stroke: #A80036; stroke-width: 1.0;" x1="148" x2="148" y1="69.4297" y2="77.4297"/><line style="stroke: #A80036; stroke-width: 1.0;" x1="158" x2="158" y1="69.4297" y2="77.4297"/><line style="stroke: #A80036; stroke-width: 1.0;" x1="148" x2="158" y1="69.4297" y2="69.4297"/><rect fill="#FFFFFF" filter="url(#f1ieec9tl2alp9)" height="6" style="stroke: #FFFFFF; stroke-width: 1.0;" width="10" x="148" y="105.4297"/><line style="stroke: #A80036; stroke-width: 1.0;" x1="148" x2="148" y1="105.4297" y2="111.4297"/><line style="stroke: #A80036; stroke-width: 1.0;" x1="158" x2="158" y1="105.4297" y2="111.4297"/><line style="stroke: #A80036; stroke-width: 1.0;" x1="148" x2="158" y1="111.4297" y2="111.4297"/><line style="stroke: #A80036; stroke-width: 1.0;" x1="152.5" x2="152.5" y1="38.2969" y2="77.4297"/><line style="stroke: #A80036; stroke-width: 1.0; stroke-dasharray: 1.0,4.0;" x1="152.5" x2="152.5" y1="77.4297" y2="105.4297"/><line style="stroke: #A80036; stroke-width: 1.0;" x1="152.5" x2="152.5" y1="105.4297" y2="129.4297"/><rect fill="#FEFECE" filter="url(#f1ieec9tl2alp9)" height="30.2969" style="stroke: #A80036; stroke-width: 1.5;" width="69" x="116.5" y="3"/><text fill="#000000" font-family="sans-serif" font-size="14" lengthAdjust="spacingAndGlyphs" textLength="55" x="123.5" y="22.9951">Conway</text><rect fill="#FFFFFF" filter="url(#f1ieec9tl2alp9)" height="8" style="stroke: #FFFFFF; stroke-width: 1.0;" width="10" x="148" y="69.4297"/><line style="stroke: #A80036; stroke-width: 1.0;" x1="148" x2="148" y1="69.4297" y2="77.4297"/><line style="stroke: #A80036; stroke-width: 1.0;" x1="158" x2="158" y1="69.4297" y2="77.4297"/><line style="stroke: #A80036; stroke-width: 1.0;" x1="148" x2="158" y1="69.4297" y2="69.4297"/><rect fill="#FFFFFF" filter="url(#f1ieec9tl2alp9)" height="6" style="stroke: #FFFFFF; stroke-width: 1.0;" width="10" x="148" y="105.4297"/><line style="stroke: #A80036; stroke-width: 1.0;" x1="148" x2="148" y1="105.4297" y2="111.4297"/><line style="stroke: #A80036; stroke-width: 1.0;" x1="158" x2="158" y1="105.4297" y2="111.4297"/><line style="stroke: #A80036; stroke-width: 1.0;" x1="148" x2="158" y1="111.4297" y2="111.4297"/><polygon fill="#A80036" points="136,65.4297,146,69.4297,136,73.4297,140,69.4297" style="stroke: #A80036; stroke-width: 1.0;"/><line style="stroke: #A80036; stroke-width: 1.0;" x1="3" x2="142" y1="69.4297" y2="69.4297"/><text fill="#000000" font-family="sans-serif" font-size="13" lengthAdjust="spacingAndGlyphs" textLength="126" x="10" y="64.3638">main(args: String[])</text><polygon fill="#A80036" points="14,107.4297,4,111.4297,14,115.4297,10,111.4297" style="stroke: #A80036; stroke-width: 1.0;"/><line style="stroke: #A80036; stroke-width: 1.0; stroke-dasharray: 2.0,2.0;" x1="8" x2="152" y1="111.4297" y2="111.4297"/><!--MD5=[6c773375498f9a889340a32d01714e76]
@startuml
hide footbox

participant "Conway" as C

[-> C: main(args: String[])
activate C
    ...
    [<- - C:
deactivate C
@enduml

PlantUML version 1.2020.17beta5(Unknown compile time)
(GPL source distribution)
Java Runtime: Java(TM) SE Runtime Environment
JVM: Java HotSpot(TM) 64-Bit Server VM
Default Encoding: UTF-8
Language: en
Country: US
--></g></svg>